<svg width="16" height="16" viewBox="0 0 16 16" fill="none" xmlns="http://www.w3.org/2000/svg">
<mask id="path-1-inside-1_1878_22834" fill="white">
<path d="M7.95703 0C11.0024 0 13.4805 2.42362 13.5703 5.44727H13.5742V6.4248C13.574 9.93151 7.82302 15.9624 7.78711 16C7.74033 15.951 2.00021 9.92815 2 6.4248V5.44727H2.00391C2.09368 2.42362 4.57179 0 7.61719 0H7.95703Z"/>
</mask>
<path d="M13.5703 5.44727L12.2409 5.48674L12.2792 6.77727H13.5703V5.44727ZM13.5742 5.44727H14.9042V4.11727H13.5742V5.44727ZM13.5742 6.4248L14.9042 6.42488V6.4248H13.5742ZM7.78711 16L6.82485 16.9181L7.78698 17.9265L8.74924 16.9183L7.78711 16ZM2 6.4248H0.67V6.42488L2 6.4248ZM2 5.44727V4.11727H0.67V5.44727H2ZM2.00391 5.44727V6.77727H3.29501L3.33332 5.48673L2.00391 5.44727ZM7.95703 0V1.33C10.2807 1.33 12.1724 3.17941 12.2409 5.48674L13.5703 5.44727L14.8997 5.40779C14.7887 1.66784 11.7241 -1.33 7.95703 -1.33V0ZM13.5703 5.44727V6.77727H13.5742V5.44727V4.11727H13.5703V5.44727ZM13.5742 5.44727H12.2442V6.4248H13.5742H14.9042V5.44727H13.5742ZM13.5742 6.4248L12.2442 6.42473C12.2442 6.98403 11.9995 7.7912 11.49 8.79113C10.996 9.76035 10.3223 10.7789 9.6246 11.7226C8.93028 12.6617 8.23176 13.5005 7.70309 14.1081C7.17527 14.7148 6.82341 15.0834 6.82498 15.0817L7.78711 16L8.74924 16.9183C8.78243 16.8835 10.2729 15.3201 11.7635 13.304C12.508 12.297 13.2744 11.1479 13.8599 9.99893C14.4298 8.88064 14.9041 7.61893 14.9042 6.42488L13.5742 6.4248ZM7.78711 16L8.74937 15.0819C8.74122 15.0733 7.33825 13.6016 5.9457 11.7173C5.24866 10.7741 4.57598 9.75655 4.08288 8.78839C3.57417 7.7896 3.33003 6.98342 3.33 6.42473L2 6.4248L0.67 6.42488C0.67007 7.61786 1.14353 8.87829 1.71261 9.99563C2.2973 11.1436 3.06262 12.2917 3.80648 13.2982C5.29573 15.3134 6.78621 16.8776 6.82485 16.9181L7.78711 16ZM2 6.4248H3.33V5.44727H2H0.67V6.4248H2ZM2 5.44727V6.77727H2.00391V5.44727V4.11727H2V5.44727ZM2.00391 5.44727L3.33332 5.48673C3.40182 3.1794 5.2935 1.33 7.61719 1.33V0V-1.33C3.85009 -1.33 0.785529 1.66784 0.674492 5.4078L2.00391 5.44727ZM7.61719 0V1.33H7.95703V0V-1.33H7.61719V0Z" fill="black" mask="url(#path-1-inside-1_1878_22834)"/>
<rect x="6.07125" y="4.0693" width="3.43596" height="3.43596" rx="1.71798" stroke="black" stroke-width="1.33"/>
</svg>
