<?xml version="1.0" encoding="UTF-8" standalone="no"?>
<svg
   width="674.80298"
   height="303.465"
   viewBox="0 0 674.80298 303.465"
   version="1.1"
   id="svg10"
   sodipodi:docname="Baden-Württemberg Stiftung.svg"
   inkscape:version="1.1.2 (0a00cf5339, 2022-02-04, custom)"
   xmlns:inkscape="http://www.inkscape.org/namespaces/inkscape"
   xmlns:sodipodi="http://sodipodi.sourceforge.net/DTD/sodipodi-0.dtd"
   xmlns="http://www.w3.org/2000/svg"
   xmlns:svg="http://www.w3.org/2000/svg">
  <defs
     id="defs14" />
  <sodipodi:namedview
     id="namedview12"
     pagecolor="#ffffff"
     bordercolor="#999999"
     borderopacity="1"
     inkscape:pageshadow="0"
     inkscape:pageopacity="0"
     inkscape:pagecheckerboard="0"
     showgrid="false"
     fit-margin-top="10"
     fit-margin-left="10"
     fit-margin-right="10"
     fit-margin-bottom="10"
     inkscape:zoom="1"
     inkscape:cx="301.5"
     inkscape:cy="33.5"
     inkscape:window-width="1920"
     inkscape:window-height="1017"
     inkscape:window-x="-8"
     inkscape:window-y="-8"
     inkscape:window-maximized="1"
     inkscape:current-layer="svg10" />
  <g
     fill="none"
     fill-rule="evenodd"
     id="g8"
     transform="translate(9.84,9.738)">
    <path
       fill="#000000"
       d="m 378.863,226.766 c 0,3.58 -3.215,5.993 -8.97,5.993 -4.451,0 -7.545,-1.857 -7.545,-5.132 0,-2.1 1.237,-3.956 3.342,-5.132 0.43,0.063 1.174,0.063 1.731,0.063 h 5.751 c 3.897,0 5.691,1.731 5.691,4.208 z m -1.977,-24.689 c 0,4.027 -2.723,6.316 -6.931,6.316 -4.392,0 -6.867,-2.289 -6.867,-6.37 0,-3.777 2.602,-6.433 6.993,-6.433 4.328,0 6.805,2.468 6.805,6.487 z m 8.594,23.819 c 0,-5.563 -3.835,-8.72 -10.514,-8.72 h -5.257 c -3.647,0 -5.073,-0.619 -5.073,-2.163 0,-0.869 0.555,-1.802 1.731,-2.351 0.991,0.243 2.291,0.368 3.404,0.368 8.909,0 13.484,-4.763 13.484,-11.383 0,-2.226 -0.807,-4.02 -2.104,-5.132 h 4.701 v -5.196 h -10.393 c -1.605,-0.376 -3.274,-0.619 -5.068,-0.619 -8.972,0 -13.736,5.383 -13.736,11.816 0,4.019 1.736,7.114 4.517,8.72 -2.104,0.988 -3.463,3.033 -3.463,5.321 0,2.037 1.176,3.65 3.032,4.575 -2.66,1.363 -4.948,4.27 -4.948,7.733 0,5.94 5.007,9.034 13.05,9.034 9.895,0 16.637,-5.32 16.637,-12.003 z m -43.978,-3.839 h 11.753 v -4.082 c -1.544,-0.369 -3.338,-0.674 -5.132,-0.799 v -16.643 c 0,-5.445 -2.229,-9.833 -9.218,-9.833 -5.132,0 -8.845,2.72 -10.64,6.684 l -0.121,-0.063 c 0.309,-1.731 0.493,-4.395 0.493,-6.002 -3.773,-0.187 -8.227,0.063 -11.69,0.432 v 4.082 c 1.794,0.125 3.898,0.376 5.383,0.618 v 20.725 c -1.857,0.125 -3.772,0.43 -5.383,0.799 v 4.082 h 16.701 v -4.137 c -1.422,-0.376 -3.154,-0.619 -4.764,-0.744 v -9.959 c 0,-6.127 3.463,-11.008 8.043,-11.008 3.525,0 4.575,2.225 4.575,6.057 z m -28.39,-0.431 v -4.082 c -1.669,-0.126 -3.647,-0.368 -5.131,-0.619 v -25.606 c -3.837,-0.187 -8.106,0 -11.381,0.432 v 4.082 c 1.606,0.125 3.462,0.376 4.759,0.556 v 9.778 c 0,6.119 -3.4,11.009 -8.039,11.009 -3.525,0 -4.579,-2.226 -4.579,-6.065 v -19.792 c -4.019,-0.187 -8.473,0.063 -11.69,0.432 v 4.082 c 1.61,0.125 3.651,0.376 5.136,0.618 v 16.392 c 0,5.445 2.163,9.833 9.151,9.833 5.199,0 8.846,-2.719 10.703,-6.676 l 0.125,0.063 c -0.31,1.794 -0.435,4.27 -0.435,5.994 3.648,0.187 8.165,-0.055 11.381,-0.431 z m -39.277,0.314 v -5.446 c -1.176,0.305 -2.66,0.493 -4.02,0.493 -3.094,0 -4.023,-1.238 -4.023,-5.813 v -14.723 h 8.043 v -5.132 h -8.102 v -11.564 l -6.557,1.794 v 9.77 h -5.877 v 5.132 h 5.877 v 16.76 c 0,6.871 1.978,9.41 8.536,9.41 2.041,0 4.329,-0.313 6.123,-0.681 z m -21.351,-44.912 c -1.794,-0.368 -3.462,-0.555 -5.132,-0.555 -8.042,0 -12.187,4.082 -12.187,12.496 v 2.35 h -6.495 v 5.132 h 6.495 v 20.725 c -1.857,0.125 -3.772,0.43 -5.383,0.799 v 4.082 h 17.382 v -4.082 c -1.609,-0.369 -3.525,-0.674 -5.383,-0.799 v -20.725 h 7.981 v -5.132 h -7.981 v -2.475 c 0,-4.826 1.858,-6.989 5.877,-6.989 1.301,0 2.848,0.188 4.332,0.619 z m -27.128,45.029 v -4.082 c -1.485,-0.369 -3.342,-0.674 -5.132,-0.799 v -25.857 c -4.024,-0.187 -8.478,0.063 -11.941,0.432 v 4.082 c 1.794,0.125 3.898,0.376 5.382,0.618 v 20.725 c -1.856,0.125 -3.776,0.43 -5.382,0.799 v 4.082 z M 221.211,182.6 c 0,-2.351 -1.916,-4.146 -4.267,-4.146 -2.35,0 -4.207,1.858 -4.207,4.146 0,2.287 1.857,4.144 4.207,4.144 2.351,0 4.267,-1.857 4.267,-4.144 z m -17.778,39.34 v -5.446 c -1.175,0.305 -2.657,0.493 -4.02,0.493 -3.091,0 -4.019,-1.238 -4.019,-5.813 v -14.723 h 8.039 v -5.132 h -8.102 v -11.564 l -6.558,1.794 v 9.77 h -5.875 v 5.132 h 5.875 v 16.76 c 0,6.871 1.983,9.41 8.537,9.41 2.041,0 4.329,-0.313 6.123,-0.681 z M 180.3,209.442 c 0,-13.053 -18.679,-9.959 -18.679,-18.31 0,-3.463 2.598,-5.877 7.855,-5.877 0.991,0 2.229,0.188 2.907,0.313 0.125,1.482 0.372,3.276 0.744,5.07 h 4.948 v -10.083 c -2.786,-0.557 -5.383,-0.863 -8.352,-0.863 -9.586,0 -15.154,5.007 -15.154,12.184 0,13.609 18.616,9.771 18.616,18.554 0,4.52 -3.709,6.432 -8.473,6.432 -1.175,0 -2.598,-0.18 -3.71,-0.431 -0.121,-1.543 -0.431,-3.337 -0.74,-5.257 h -4.949 v 10.452 c 2.657,0.682 5.874,1.05 9.152,1.05 9.774,0 15.835,-5.564 15.835,-13.234 z m 198.563,-47.84 c 0,3.588 -3.215,6.001 -8.967,6.001 -4.454,0 -7.548,-1.857 -7.548,-5.132 0,-2.108 1.237,-3.956 3.342,-5.132 0.43,0.055 1.174,0.055 1.731,0.055 h 5.751 c 3.897,0 5.691,1.739 5.691,4.208 z m -1.977,-24.681 c 0,4.023 -2.723,6.315 -6.931,6.315 -4.392,0 -6.863,-2.292 -6.863,-6.378 0,-3.768 2.598,-6.428 6.989,-6.428 4.328,0 6.805,2.471 6.805,6.491 z m 8.594,23.818 c 0,-5.57 -3.831,-8.72 -10.514,-8.72 h -5.257 c -3.647,0 -5.073,-0.619 -5.073,-2.17 0,-0.863 0.555,-1.794 1.731,-2.351 0.991,0.251 2.291,0.376 3.404,0.376 8.909,0 13.484,-4.764 13.484,-11.384 0,-2.225 -0.807,-4.019 -2.104,-5.133 h 4.701 v -5.194 h -10.393 c -1.605,-0.376 -3.274,-0.619 -5.068,-0.619 -8.972,0 -13.736,5.379 -13.736,11.815 0,4.02 1.736,7.115 4.517,8.721 -2.104,0.987 -3.463,3.032 -3.463,5.32 0,2.038 1.176,3.643 3.032,4.576 -2.66,1.363 -4.948,4.27 -4.948,7.733 0,5.939 5.007,9.025 13.05,9.025 9.895,0 16.637,-5.319 16.637,-11.995 z m -33.337,-35.195 c -6.37,-0.556 -9.465,3.275 -10.887,7.42 h -0.064 c 0.373,-2.351 0.62,-5.069 0.62,-6.801 -3.773,-0.187 -8.227,0.059 -11.69,0.431 v 4.082 c 1.794,0.126 3.897,0.369 5.383,0.619 v 20.724 c -1.857,0.118 -3.773,0.431 -5.383,0.799 v 4.082 h 17.319 v -4.082 c -1.606,-0.368 -3.526,-0.681 -5.382,-0.799 v -7.608 c 0,-9.221 3.032,-13.488 9.774,-12.371 z m -33.339,11.753 h -13.053 c 0.56,-4.145 3.157,-6.867 6.867,-6.867 3.899,0 6.312,2.66 6.186,6.867 z m 6.617,1.544 c 0,-7.299 -3.773,-13.297 -12.556,-13.297 -8.967,0 -14.041,6.927 -14.041,16.203 0,10.828 5.258,15.773 14.844,15.773 3.776,0 7.55,-0.682 10.641,-1.975 l -0.619,-5.258 c -2.536,1.231 -5.814,1.975 -8.968,1.975 -6.123,0 -9.281,-3.212 -9.092,-10.326 h 19.606 c 0.122,-1.176 0.185,-2.226 0.185,-3.095 z m -38.039,1.794 c 0,8.289 -3.589,11.502 -8.846,11.502 -1.916,0 -3.464,-0.181 -4.823,-0.619 v -9.52 c 0,-5.198 2.66,-10.953 7.608,-10.953 4.145,0 6.061,3.408 6.061,9.59 z m -13.669,-28.888 c -4.023,-0.184 -8.536,0.063 -11.999,0.435 v 4.082 c 1.79,0.121 3.894,0.372 5.379,0.619 v 39.218 c 3.342,0.862 6.62,1.293 10.949,1.293 10.205,0 16.328,-6.739 16.328,-17.378 0,-9.277 -4.018,-14.472 -11.317,-14.472 -4.517,0 -8.164,2.413 -9.775,6.245 h -0.121 c 0.368,-1.606 0.556,-4.082 0.556,-5.877 z M 249.711,156.9 h 11.752 v -4.082 c -1.543,-0.368 -3.337,-0.681 -5.132,-0.799 v -16.332 c 0,-6.989 -3.278,-10.143 -9.155,-10.143 -5.629,0 -8.967,3.647 -10.33,6.617 -0.494,-2.722 -2.473,-6.617 -8.474,-6.617 -4.764,0 -8.658,2.594 -10.452,6.676 l -0.063,-0.059 c 0.31,-1.794 0.431,-4.391 0.431,-5.998 -3.71,-0.187 -8.226,0.059 -11.689,0.431 v 4.082 c 1.794,0.126 3.897,0.369 5.382,0.619 v 20.724 c -1.857,0.118 -3.773,0.431 -5.382,0.799 v 4.082 h 16.704 v -4.144 c -1.426,-0.369 -3.157,-0.619 -4.764,-0.737 v -9.841 c 0,-6.433 3.71,-11.133 7.917,-11.133 3.71,0 4.392,2.727 4.392,6.189 V 156.9 h 11.318 v -4.144 c -1.423,-0.369 -3.154,-0.619 -4.765,-0.737 v -9.841 c 0,-6.738 3.961,-11.133 7.918,-11.133 3.526,0 4.392,2.413 4.392,6.252 z M 195.28,137.297 h -13.052 c 0.559,-4.145 3.157,-6.867 6.867,-6.867 3.898,0 6.311,2.66 6.185,6.867 z m 6.621,1.544 c 0,-7.299 -3.776,-13.297 -12.559,-13.297 -8.968,0 -14.041,6.927 -14.041,16.203 0,10.828 5.258,15.773 14.847,15.773 3.773,0 7.545,-0.682 10.637,-1.975 l -0.619,-5.258 c -2.535,1.231 -5.814,1.975 -8.968,1.975 -6.123,0 -9.276,-3.212 -9.092,-10.326 h 19.607 c 0.126,-1.176 0.188,-2.226 0.188,-3.095 z m -30.928,17.941 v -5.445 c -1.176,0.306 -2.661,0.494 -4.02,0.494 -3.095,0 -4.019,-1.238 -4.019,-5.813 v -14.723 h 8.039 v -5.132 h -8.102 v -11.572 l -6.559,1.794 v 9.778 h -5.875 v 5.132 h 5.875 v 16.76 c 0,6.871 1.979,9.401 8.538,9.401 2.041,0 4.328,-0.305 6.123,-0.674 z m -24.716,0 v -5.445 c -1.176,0.306 -2.66,0.494 -4.02,0.494 -3.094,0 -4.023,-1.238 -4.023,-5.813 v -14.723 h 8.043 v -5.132 h -8.106 v -11.572 l -6.553,1.794 v 9.778 h -5.877 v 5.132 h 5.877 v 16.76 c 0,6.871 1.977,9.401 8.536,9.401 2.041,0 4.328,-0.305 6.123,-0.674 z m -24.128,-31.238 c -6.374,-0.556 -9.465,3.275 -10.888,7.42 h -0.062 c 0.372,-2.351 0.619,-5.069 0.619,-6.801 -3.773,-0.187 -8.227,0.059 -11.69,0.431 v 4.082 c 1.79,0.126 3.894,0.369 5.379,0.619 v 20.724 c -1.853,0.118 -3.773,0.431 -5.379,0.799 v 4.082 h 17.32 v -4.082 c -1.611,-0.368 -3.527,-0.681 -5.383,-0.799 v -7.608 c 0,-9.221 3.032,-13.488 9.77,-12.371 z M 96.892,156.47 v -4.083 c -1.673,-0.125 -3.652,-0.368 -5.136,-0.618 v -25.606 c -3.835,-0.187 -8.102,0 -11.38,0.431 v 4.082 c 1.605,0.126 3.463,0.369 4.764,0.556 v 9.771 c 0,6.127 -3.406,11.016 -8.043,11.016 -3.526,0 -4.576,-2.233 -4.576,-6.064 v -19.792 c -4.023,-0.187 -8.474,0.059 -11.69,0.431 v 4.082 c 1.606,0.126 3.647,0.369 5.132,0.619 v 16.392 c 0,5.445 2.162,9.833 9.155,9.833 5.195,0 8.846,-2.719 10.699,-6.676 l 0.125,0.062 c -0.309,1.794 -0.434,4.263 -0.434,5.994 3.65,0.188 8.168,-0.062 11.384,-0.43 z M 76.046,116.573 c 0,-2.041 -1.672,-3.714 -3.776,-3.714 -2.1,0 -3.71,1.673 -3.71,3.714 0,2.104 1.61,3.773 3.71,3.773 2.104,0 3.776,-1.669 3.776,-3.773 z m 12.121,0 c 0,-2.041 -1.668,-3.714 -3.709,-3.714 -2.104,0 -3.773,1.673 -3.773,3.714 0,2.104 1.669,3.773 3.773,3.773 2.041,0 3.709,-1.669 3.709,-3.773 z m -28.562,2.719 v -4.141 H 44.757 v 4.082 c 1.426,0.31 3.095,0.62 4.642,0.741 l -5.198,21.28 c -0.556,2.287 -0.987,4.701 -1.422,7.302 h -0.063 c -0.431,-2.664 -1.05,-5.508 -1.669,-7.734 l -7.298,-25.671 h -7.424 l -7.114,25.671 c -0.678,2.535 -1.175,5.196 -1.606,7.914 h -0.063 c -0.431,-2.781 -0.928,-5.441 -1.606,-8.226 l -5.199,-20.536 c 1.611,-0.121 3.342,-0.431 4.764,-0.741 v -4.082 H 0.16 v 4.141 c 0.991,0.251 2.413,0.497 3.467,0.619 l 9.461,36.989 h 7.98 l 6.989,-25.915 c 0.744,-2.596 1.238,-5.135 1.547,-7.728 h 0.063 c 0.372,2.655 0.866,5.315 1.547,7.85 l 7.111,25.793 h 8.352 l 9.402,-36.989 c 1.112,-0.122 2.535,-0.368 3.526,-0.619 z M 374.613,94.056 h 11.753 v -4.083 c -1.544,-0.372 -3.338,-0.682 -5.132,-0.807 V 72.528 c 0,-5.441 -2.229,-9.837 -9.218,-9.837 -5.132,0 -8.846,2.727 -10.64,6.684 l -0.121,-0.062 c 0.305,-1.733 0.493,-4.392 0.493,-6.002 -3.772,-0.185 -8.227,0.062 -11.689,0.434 v 4.082 c 1.793,0.126 3.893,0.372 5.381,0.619 v 20.72 c -1.856,0.125 -3.776,0.435 -5.381,0.807 v 4.083 h 16.7 V 89.91 c -1.422,-0.372 -3.153,-0.619 -4.764,-0.744 v -9.958 c 0,-6.119 3.463,-11.009 8.042,-11.009 3.526,0 4.576,2.226 4.576,6.061 z M 338.999,74.444 h -13.054 c 0.561,-4.145 3.159,-6.864 6.868,-6.864 3.898,0 6.307,2.66 6.186,6.864 z m 6.616,1.551 c 0,-7.302 -3.772,-13.304 -12.555,-13.304 -8.967,0 -14.041,6.93 -14.041,16.211 0,10.821 5.258,15.772 14.844,15.772 3.777,0 7.549,-0.682 10.64,-1.982 l -0.619,-5.257 c -2.534,1.238 -5.814,1.982 -8.967,1.982 -6.123,0 -9.276,-3.221 -9.093,-10.331 h 19.608 c 0.121,-1.175 0.183,-2.229 0.183,-3.091 z m -40.945,2.163 c 0,5.257 -2.719,11.071 -7.608,11.071 -4.204,0 -6.124,-3.463 -6.124,-9.649 0,-8.286 3.589,-11.506 8.846,-11.506 1.607,0 3.217,0.188 4.886,0.557 z m 11.689,15.466 v -4.086 c -1.605,-0.121 -3.647,-0.372 -5.132,-0.615 V 48.901 c -4.019,-0.187 -8.473,0.064 -11.936,0.432 v 4.082 c 1.794,0.125 3.894,0.372 5.379,0.619 v 9.033 c -1.669,-0.125 -3.154,-0.251 -4.639,-0.251 -9.958,0 -16.081,6.805 -16.081,17.383 0,8.905 3.773,14.475 11.318,14.475 4.763,0 8.352,-2.601 10.021,-6.369 h 0.125 c -0.31,1.731 -0.435,4.144 -0.435,5.751 3.714,0.187 8.165,-0.064 11.38,-0.432 z M 269.537,80.818 c 0,4.391 -3.032,8.72 -7.545,8.72 -2.598,0 -4.207,-1.484 -4.207,-3.835 0,-2.97 2.785,-5.504 11.752,-5.504 z m 11.753,12.806 v -4.086 c -1.606,-0.121 -3.647,-0.372 -5.132,-0.615 V 73.089 c 0,-6.316 -2.601,-10.456 -12.004,-10.456 -3.956,0 -7.607,0.678 -10.635,1.673 v 8.72 h 4.144 c 0.247,-1.61 0.557,-3.158 0.678,-4.58 1.548,-0.434 3.342,-0.677 5.073,-0.677 4.701,0 6.123,2.037 6.123,5.876 v 2.163 c -11.07,0.062 -18.122,3.956 -18.122,11.007 0,4.89 3.342,7.859 8.599,7.859 4.884,0 8.72,-2.723 10.205,-6.369 l 0.062,0.062 c -0.246,1.669 -0.308,3.706 -0.308,5.689 3.584,0.187 8.1,-0.064 11.317,-0.432 z M 239.662,81.559 c 0,4.207 -2.906,7.176 -9.029,7.176 -2.167,0 -3.836,-0.126 -4.886,-0.309 v -13.3 c 0.925,-0.062 3.091,-0.062 3.772,-0.062 5.877,0 10.143,1.731 10.143,6.495 z m -0.803,-18.248 c 0,4.207 -3.279,6.746 -9.527,6.746 -1.359,0 -2.535,0 -3.585,-0.063 V 57.622 c 1.607,-0.062 3.401,-0.125 5.258,-0.125 5.997,0 7.854,2.413 7.854,5.814 z m 7.917,18.122 c 0,-4.325 -2.534,-8.47 -7.979,-9.52 v -0.125 c 4.266,-1.489 7.114,-5.258 7.114,-9.527 0,-6.433 -4.701,-10.147 -13.794,-10.147 -5.011,0 -10.084,0.188 -13.237,0.188 h -5.198 v 4.082 c 1.609,0.373 3.529,0.681 5.381,0.807 v 31.975 c -1.852,0.125 -3.772,0.435 -5.381,0.807 v 4.083 h 5.381 c 4.581,0 8.784,0.187 11.323,0.187 12.801,0 16.39,-7.365 16.39,-12.81 z"
       id="path2" />
    <polygon
       fill="#000000"
       points="392.846,73.276 392.846,78.596 407.69,78.596 407.69,73.276 "
       id="polygon4" />
    <path
       fill="#000000"
       d="m 444.071,156.117 c 6.456,0 11.69,-5.234 11.69,-11.69 0,-6.456 -5.234,-11.686 -11.69,-11.686 -6.456,0 -11.69,5.23 -11.69,11.686 0,6.456 5.234,11.69 11.69,11.69 m 33.181,-4.866 c 3.765,0 6.817,-3.056 6.817,-6.824 0,-3.761 -3.052,-6.817 -6.817,-6.817 -3.765,0 -6.817,3.056 -6.817,6.817 0,3.768 3.052,6.824 6.817,6.824 m 33.119,4.866 c 6.456,0 11.69,-5.234 11.69,-11.69 0,-6.456 -5.234,-11.686 -11.69,-11.686 -6.456,0 -11.689,5.23 -11.689,11.686 0,6.456 5.233,11.69 11.689,11.69 m 33.119,2.922 c 8.07,0 14.612,-6.542 14.612,-14.612 0,-8.071 -6.542,-14.609 -14.612,-14.609 -8.07,0 -14.612,6.538 -14.612,14.609 0,8.07 6.542,14.612 14.612,14.612 m 33.217,-2.922 c 6.456,0 11.689,-5.234 11.689,-11.69 0,-6.456 -5.233,-11.686 -11.689,-11.686 -6.456,0 -11.69,5.23 -11.69,11.686 0,6.456 5.234,11.69 11.69,11.69 m 33.021,-0.486 c 6.456,0 11.689,-5.234 11.689,-11.69 0,-6.456 -5.233,-11.69 -11.689,-11.69 -6.457,0 -11.686,5.234 -11.686,11.69 0,6.456 5.229,11.69 11.686,11.69 M 477.386,118.129 c 3.764,0 6.816,-3.053 6.816,-6.821 0,-3.761 -3.052,-6.817 -6.816,-6.817 -3.765,0 -6.817,3.056 -6.817,6.817 0,3.768 3.052,6.821 6.817,6.821 m 33.118,4.869 c 6.456,0 11.69,-5.234 11.69,-11.69 0,-6.456 -5.234,-11.69 -11.69,-11.69 -6.456,0 -11.689,5.234 -11.689,11.69 0,6.456 5.233,11.69 11.689,11.69 m 33.119,0 c 6.456,0 11.69,-5.234 11.69,-11.69 0,-6.456 -5.234,-11.69 -11.69,-11.69 -6.456,0 -11.686,5.234 -11.686,11.69 0,6.456 5.23,11.69 11.686,11.69 m 33.217,0 c 6.46,0 11.69,-5.234 11.69,-11.69 0,-6.456 -5.23,-11.69 -11.69,-11.69 -6.456,0 -11.686,5.234 -11.686,11.69 0,6.456 5.23,11.69 11.686,11.69 m 33.024,-5.359 c 3.766,0 6.817,-3.048 6.817,-6.817 0,-3.764 -3.051,-6.816 -6.817,-6.816 -3.768,0 -6.82,3.052 -6.82,6.816 0,3.769 3.052,6.817 6.82,6.817 m 33.413,4.387 c 6.452,0 11.686,-5.233 11.686,-11.689 0,-6.456 -5.234,-11.69 -11.686,-11.69 -6.46,0 -11.69,5.234 -11.69,11.69 0,6.456 5.23,11.689 11.69,11.689 M 510.504,92.802 c 8.07,0 14.613,-6.542 14.613,-14.612 0,-8.071 -6.543,-14.613 -14.613,-14.613 -8.069,0 -14.612,6.542 -14.612,14.613 0,8.07 6.543,14.612 14.612,14.612 m 33.119,-7.792 c 3.769,0 6.82,-3.052 6.82,-6.82 0,-3.761 -3.051,-6.817 -6.82,-6.817 -3.765,0 -6.816,3.056 -6.816,6.817 0,3.768 3.051,6.82 6.816,6.82 m 33.217,7.792 c 8.07,0 14.612,-6.542 14.612,-14.612 0,-8.071 -6.542,-14.613 -14.612,-14.613 -8.067,0 -14.608,6.542 -14.608,14.613 0,8.07 6.541,14.612 14.608,14.612 m 33.024,-8.282 c 3.766,0 6.817,-3.048 6.817,-6.817 0,-3.764 -3.051,-6.816 -6.817,-6.816 -3.768,0 -6.82,3.052 -6.82,6.816 0,3.769 3.052,6.817 6.82,6.817 M 510.116,51.891 c 3.765,0 6.817,-3.052 6.817,-6.821 0,-3.764 -3.052,-6.816 -6.817,-6.816 -3.764,0 -6.82,3.052 -6.82,6.816 0,3.769 3.056,6.821 6.82,6.821 m 0,-33.123 c 3.765,0 6.817,-3.048 6.817,-6.816 0,-3.765 -3.052,-6.817 -6.817,-6.817 -3.764,0 -6.82,3.052 -6.82,6.817 0,3.768 3.056,6.816 6.82,6.816 m 33.119,40.915 c 8.071,0 14.613,-6.542 14.613,-14.613 0,-8.07 -6.542,-14.612 -14.613,-14.612 -8.07,0 -14.612,6.542 -14.612,14.612 0,8.071 6.542,14.613 14.612,14.613 m 33.217,-7.792 c 3.765,0 6.817,-3.052 6.817,-6.821 0,-3.764 -3.052,-6.816 -6.817,-6.816 -3.764,0 -6.816,3.052 -6.816,6.816 0,3.769 3.052,6.821 6.816,6.821 m 0,-28.249 c 6.456,0 11.69,-5.234 11.69,-11.69 0,-6.456 -5.234,-11.69 -11.69,-11.69 -6.456,0 -11.69,5.234 -11.69,11.69 0,6.456 5.234,11.69 11.69,11.69 m 33.021,27.759 c 3.764,0 6.82,-3.047 6.82,-6.816 0,-3.765 -3.056,-6.816 -6.82,-6.816 -3.765,0 -6.817,3.051 -6.817,6.816 0,3.769 3.052,6.816 6.817,6.816 M 443.949,184.37 c 3.765,0 6.82,-3.055 6.82,-6.824 0,-3.761 -3.055,-6.816 -6.82,-6.816 -3.764,0 -6.816,3.055 -6.816,6.816 0,3.769 3.052,6.824 6.816,6.824 m 33.182,4.865 c 6.456,0 11.69,-5.233 11.69,-11.689 0,-6.456 -5.234,-11.69 -11.69,-11.69 -6.456,0 -11.69,5.234 -11.69,11.69 0,6.456 5.234,11.689 11.69,11.689 m 33.119,2.923 c 8.069,0 14.612,-6.543 14.612,-14.612 0,-8.063 -6.543,-14.605 -14.612,-14.605 -8.07,0 -14.612,6.542 -14.612,14.605 0,8.069 6.542,14.612 14.612,14.612 m 33.118,-7.788 c 3.765,0 6.82,-3.055 6.82,-6.824 0,-3.761 -3.055,-6.816 -6.82,-6.816 -3.764,0 -6.816,3.055 -6.816,6.816 0,3.769 3.052,6.824 6.816,6.824 m 33.217,4.865 c 6.456,0 11.69,-5.233 11.69,-11.689 0,-6.456 -5.234,-11.69 -11.69,-11.69 -6.456,0 -11.689,5.234 -11.689,11.69 0,6.456 5.233,11.689 11.689,11.689 m 33.021,-0.485 c 6.46,0 11.69,-5.234 11.69,-11.69 0,-6.456 -5.23,-11.69 -11.69,-11.69 -6.456,0 -11.686,5.234 -11.686,11.69 0,6.456 5.23,11.69 11.686,11.69 m -165.535,33.605 c 6.456,0 11.69,-5.235 11.69,-11.683 0,-6.464 -5.234,-11.69 -11.69,-11.69 -6.456,0 -11.69,5.226 -11.69,11.69 0,6.448 5.234,11.683 11.69,11.683 m 33.181,-4.867 c 3.765,0 6.817,-3.055 6.817,-6.816 0,-3.769 -3.052,-6.824 -6.817,-6.824 -3.765,0 -6.82,3.055 -6.82,6.824 0,3.761 3.055,6.816 6.82,6.816 m 33.119,4.867 c 6.456,0 11.69,-5.235 11.69,-11.683 0,-6.464 -5.234,-11.69 -11.69,-11.69 -6.456,0 -11.689,5.226 -11.689,11.69 0,6.448 5.233,11.683 11.689,11.683 m 33.119,2.921 c 8.07,0 14.612,-6.542 14.612,-14.604 0,-8.069 -6.542,-14.612 -14.612,-14.612 -8.07,0 -14.612,6.543 -14.612,14.612 0,8.062 6.542,14.604 14.612,14.604 m 33.217,-2.921 c 6.456,0 11.689,-5.235 11.689,-11.683 0,-6.464 -5.233,-11.69 -11.689,-11.69 -6.456,0 -11.69,5.226 -11.69,11.69 0,6.448 5.234,11.683 11.69,11.683 m 33.021,-5.352 c 3.768,0 6.82,-3.056 6.82,-6.824 0,-3.761 -3.052,-6.817 -6.82,-6.817 -3.765,0 -6.817,3.056 -6.817,6.817 0,3.768 3.052,6.824 6.817,6.824 m -132.476,38.47 c 6.456,0 11.69,-5.234 11.69,-11.682 0,-6.456 -5.234,-11.689 -11.69,-11.689 -6.456,0 -11.69,5.233 -11.69,11.689 0,6.448 5.234,11.682 11.69,11.682 m 33.119,-4.866 c 3.765,0 6.82,-3.055 6.82,-6.816 0,-3.768 -3.055,-6.824 -6.82,-6.824 -3.765,0 -6.816,3.056 -6.816,6.824 0,3.761 3.051,6.816 6.816,6.816 m 33.119,4.866 c 6.456,0 11.69,-5.234 11.69,-11.682 0,-6.456 -5.234,-11.689 -11.69,-11.689 -6.456,0 -11.69,5.233 -11.69,11.689 0,6.448 5.234,11.682 11.69,11.682 m 33.217,2.923 c 8.069,0 14.612,-6.535 14.612,-14.605 0,-8.07 -6.543,-14.612 -14.612,-14.612 -8.07,0 -14.612,6.542 -14.612,14.612 0,8.07 6.542,14.605 14.612,14.605 m 33.021,-8.274 c 3.768,0 6.82,-3.056 6.82,-6.824 0,-3.762 -3.052,-6.817 -6.82,-6.817 -3.765,0 -6.817,3.055 -6.817,6.817 0,3.768 3.052,6.824 6.817,6.824 m -33.276,33.605 c 3.765,0 6.817,-3.056 6.817,-6.817 0,-3.768 -3.052,-6.824 -6.817,-6.824 -3.764,0 -6.816,3.056 -6.816,6.824 0,3.761 3.052,6.817 6.816,6.817 m -132.381,-33.12 c 3.769,0 6.821,-3.055 6.821,-6.816 0,-3.768 -3.052,-6.824 -6.821,-6.824 -3.765,0 -6.816,3.056 -6.816,6.824 0,3.761 3.051,6.816 6.816,6.816"
       id="path6" />
  </g>
</svg>
