<?xml version="1.0" encoding="UTF-8" standalone="no"?>
<!-- Created with Inkscape (http://www.inkscape.org/) -->

<svg
   xmlns:dc="http://purl.org/dc/elements/1.1/"
   xmlns:cc="http://creativecommons.org/ns#"
   xmlns:rdf="http://www.w3.org/1999/02/22-rdf-syntax-ns#"
   xmlns:svg="http://www.w3.org/2000/svg"
   xmlns="http://www.w3.org/2000/svg"
   xmlns:sodipodi="http://sodipodi.sourceforge.net/DTD/sodipodi-0.dtd"
   xmlns:inkscape="http://www.inkscape.org/namespaces/inkscape"
   width="113.59"
   height="25.51"
   id="svg3838"
   version="1.1"
   inkscape:version="0.48.1 "
   sodipodi:docname="Neues Dokument 5">
  <defs
     id="defs3840">
    <clipPath
       clipPathUnits="userSpaceOnUse"
       id="clipPath62">
      <path
         inkscape:connector-curvature="0"
         d="m 274.981,29.1088 89.765,0 0,26.924 -89.765,0 0,-26.924 z"
         id="path64" />
    </clipPath>
  </defs>
  <sodipodi:namedview
     id="base"
     pagecolor="#ffffff"
     bordercolor="#666666"
     borderopacity="1.0"
     inkscape:pageopacity="0.0"
     inkscape:pageshadow="2"
     inkscape:zoom="8.0111195"
     inkscape:cx="56.795"
     inkscape:cy="12.754998"
     inkscape:document-units="px"
     inkscape:current-layer="layer1"
     showgrid="false"
     fit-margin-top="0"
     fit-margin-left="0"
     fit-margin-right="0"
     fit-margin-bottom="0"
     inkscape:window-width="1024"
     inkscape:window-height="678"
     inkscape:window-x="-4"
     inkscape:window-y="-4"
     inkscape:window-maximized="1" />
  <metadata
     id="metadata3843">
    <rdf:RDF>
      <cc:Work
         rdf:about="">
        <dc:format>image/svg+xml</dc:format>
        <dc:type
           rdf:resource="http://purl.org/dc/dcmitype/StillImage" />
        <dc:title></dc:title>
      </cc:Work>
    </rdf:RDF>
  </metadata>
  <g
     inkscape:label="Ebene 1"
     inkscape:groupmode="layer"
     id="layer1"
     transform="translate(-198.14969,-539.83883)">
    <g
       transform="matrix(1.25,0,0,-1.25,-144.86838,604.55702)"
       id="g58">
      <g
         id="g60"
         clip-path="url(#clipPath62)">
        <path
           inkscape:connector-curvature="0"
           d="m 296.8691,35.8787 1.6035,0 0,5.7906 -1.6035,0 0,-5.7906 z"
           style="fill:#000000;fill-opacity:1;fill-rule:nonzero;stroke:none"
           id="path66" />
        <path
           inkscape:connector-curvature="0"
           d="m 302.0361,35.8787 1.6035,0 0,5.7906 -1.6035,0 0,-5.7906 z"
           style="fill:#000000;fill-opacity:1;fill-rule:nonzero;stroke:none"
           id="path68" />
        <path
           inkscape:connector-curvature="0"
           d="m 295.1855,42.3996 9.9776,0 0,1.3363 -9.9776,0 0,-1.3363 z"
           style="fill:#000000;fill-opacity:1;fill-rule:nonzero;stroke:none"
           id="path70" />
        <path
           inkscape:connector-curvature="0"
           d="m 305.1682,44.5309 -4.9887,3.2962 -4.9888,-3.2962"
           style="fill:#000000;fill-opacity:1;fill-rule:nonzero;stroke:none"
           id="path72" />
        <path
           inkscape:connector-curvature="0"
           d="m 279.6929,42.2897 c -0.4954,0.2139 -1.047,0.3377 -1.5986,0.3377 -0.5403,0 -1.2383,-0.2364 -1.2383,-1.0919 0,-1.3621 3.4448,-0.788 3.4448,-3.4222 0,-1.7224 -1.3622,-2.3753 -2.9495,-2.3753 -0.8555,0 -1.2383,0.1126 -2.015,0.304 l 0.1463,1.4184 c 0.5404,-0.2927 1.1596,-0.4841 1.7787,-0.4841 0.5966,0 1.3959,0.304 1.3959,1.0131 0,1.4973 -3.4447,0.8781 -3.4447,3.4785 0,1.7562 1.3621,2.3978 2.7468,2.3978 0.6754,0 1.3058,-0.09 1.8799,-0.2814"
           style="fill:#000000;fill-opacity:1;fill-rule:nonzero;stroke:none"
           id="path74" />
        <path
           inkscape:connector-curvature="0"
           d="m 282.9548,42.4922 -2.2515,0 0,1.2383 6.0789,0 0,-1.2383 -2.2514,0 0,-6.6193 -1.576,0"
           style="fill:#000000;fill-opacity:1;fill-rule:nonzero;stroke:none"
           id="path76" />
        <path
           inkscape:connector-curvature="0"
           d="m 287.6719,43.7306 1.576,0 0,-4.5366 c 0,-1.3396 0.4278,-2.2177 1.6323,-2.2177 1.2046,0 1.6323,0.8781 1.6323,2.2177 l 0,4.5366 1.576,0 0,-5.0207 c 0,-2.1051 -1.1932,-2.9719 -3.2083,-2.9719 -2.015,0 -3.2083,0.8668 -3.2083,2.9719"
           style="fill:#000000;fill-opacity:1;fill-rule:nonzero;stroke:none"
           id="path78" />
        <path
           inkscape:connector-curvature="0"
           d="m 312.5026,42.2109 c -0.6079,0.2814 -1.3959,0.4165 -2.0263,0.4165 -1.835,0 -2.8481,-1.2383 -2.8481,-2.848 0,-1.5986 0.9906,-2.8031 2.6679,-2.8031 0.4278,0 0.7655,0.045 1.0357,0.1126 l 0,2.0488 -1.6661,0 0,1.2383 3.1746,0 0,-4.2327 c -0.833,-0.2252 -1.6999,-0.4053 -2.5442,-0.4053 -2.5441,0 -4.3115,1.2721 -4.3115,3.9288 0,2.6905 1.6436,4.1989 4.3115,4.1989 0.9119,0 1.6323,-0.1238 2.3078,-0.3264"
           style="fill:#000000;fill-opacity:1;fill-rule:nonzero;stroke:none"
           id="path80" />
        <path
           inkscape:connector-curvature="0"
           d="m 316.8085,43.7306 1.7787,0 3.0845,-7.8575 -1.7449,0 -0.6755,1.8011 -3.1857,0 -0.6868,-1.8011 -1.6322,0 3.0619,7.8575 z m 0.8668,-1.576 -0.0225,0 -1.137,-3.2421 2.2965,0"
           style="fill:#000000;fill-opacity:1;fill-rule:nonzero;stroke:none"
           id="path82" />
        <path
           inkscape:connector-curvature="0"
           d="m 322.8631,43.7306 1.6999,0 c 1.6885,0 3.7036,0.0563 3.7036,-2.1276 0,-0.9231 -0.6192,-1.6886 -1.6211,-1.8236 l 0,-0.0226 c 0.4278,-0.0337 0.6755,-0.4615 0.8331,-0.8105 l 1.2608,-3.0732 -1.7562,0 -0.9456,2.4541 c -0.2251,0.5853 -0.4277,0.8105 -1.0919,0.8105 l -0.5066,0 0,-3.2646 -1.576,0 0,7.8575 z m 1.576,-3.3546 0.5178,0 c 0.7768,0 1.6661,0.1126 1.6661,1.0919 0,0.9456 -0.878,1.0244 -1.6661,1.0244 l -0.5178,0"
           style="fill:#000000;fill-opacity:1;fill-rule:nonzero;stroke:none"
           id="path84" />
        <path
           inkscape:connector-curvature="0"
           d="m 331.2968,42.5077 -2.2628,0 0,1.2445 6.1095,0 0,-1.2445 -2.2628,0 0,-6.6525 -1.5839,0"
           style="fill:#000000;fill-opacity:1;fill-rule:nonzero;stroke:none"
           id="path86" />
        <path
           inkscape:connector-curvature="0"
           d="m 358.1578,39.8208 0.0238,0 0,0.0059 -0.0238,0 0,-0.0059 z"
           style="fill:#000000;fill-opacity:1;fill-rule:nonzero;stroke:none"
           id="path88" />
        <path
           inkscape:connector-curvature="0"
           d="m 364.477,44.3728 c 0.0416,0.0892 -0.0417,0.1606 -0.0714,0.2261 -0.1012,0.113 -0.2202,0.1844 -0.3213,0.2796 -0.0834,-0.0059 -0.1072,0.0655 -0.1666,0.0774 0,-0.006 0.006,-0.0179 -0.006,-0.0238 0.0654,-0.0417 0.1369,-0.1012 0.2023,-0.1547 0.0298,-0.0714 0.0952,-0.0774 0.1071,-0.1369 0.0179,-0.0416 0.0417,-0.1071 0.006,-0.1487 -0.0179,0.0119 -0.0596,0.0059 -0.0596,0.0357 -0.0892,0.0059 -0.1428,0.0297 -0.2261,0 -0.0475,-0.0357 -0.0713,-0.1131 -0.0594,-0.1726 -0.006,-0.0774 0.0892,-0.0952 0.0594,-0.1785 0,-0.0238 -0.0356,-0.0357 -0.0237,-0.0476 -0.0417,-0.0357 -0.1191,-0.0179 -0.1786,-0.0119 -0.0118,0.0417 -0.0773,0.0238 -0.119,0.0357 -0.0119,0.0119 0.0179,0.006 0,0.0178 -0.1368,0.0298 -0.2737,0.0893 -0.4165,0.1309 l 0.0119,0.012 c -0.0952,0 -0.1844,0.0416 -0.2737,0.0654 -0.1606,0.0238 -0.3153,0.0178 -0.482,0.006 -0.0833,-0.0179 -0.1785,-0.0477 -0.2439,-0.1072 -0.1547,-0.1487 -0.244,-0.3332 -0.3451,-0.4998 -0.0417,-0.0059 -0.0238,-0.0773 -0.0714,-0.0595 0.0238,0.0952 0.119,0.1845 0.119,0.2916 0.0119,0.0654 -0.0238,0.1547 -0.0536,0.1963 -0.0892,0.0655 -0.1487,0.1786 -0.232,0.25 -0.0774,0.0357 -0.1488,0.0892 -0.2202,0.1309 0,0 0.006,0.0059 0.0119,0.0059 -0.0179,0.0119 -0.0417,0.0179 -0.0595,0.006 -0.006,-0.0417 0.0595,-0.0119 0.0535,-0.0536 0.0179,0 0.0298,-0.0119 0.0477,-0.0119 0.0832,-0.0952 0.1606,-0.1606 0.238,-0.2559 -0.0238,-0.0178 0.0238,-0.0416 0.0119,-0.0535 0.0238,-0.1011 -0.0119,-0.1904 -0.0833,-0.2559 -0.0655,-0.0654 -0.1488,-0.113 -0.2143,-0.1844 -0.238,-0.2856 -0.1011,-0.6545 -0.006,-0.964 0.0893,-0.2618 0.238,-0.5414 0.2261,-0.8032 -0.0357,-0.1607 0.006,-0.3452 -0.119,-0.482 -0.0595,-0.006 -0.0595,-0.0655 -0.1071,-0.0655 l 0.0119,-0.0119 c -0.0357,-0.0178 -0.113,0 -0.1071,-0.0416 l -0.3035,-0.006 c -0.0833,0.0417 -0.1368,0.0536 -0.2201,0.0893 0.006,0.0059 0.006,0.0059 0.0119,0.0059 -0.1547,0.0953 -0.2737,0.2142 -0.3927,0.3094 l 0.006,0.006 c -0.0773,0.0595 -0.1428,0.1309 -0.2201,0.1785 l 0.006,0.006 -0.0595,0.0238 0.006,0.0059 c -0.1131,0.0417 -0.2023,0.1547 -0.3333,0.1845 l -0.1547,0.0238 0.006,0 c -0.1666,0.0119 -0.3451,0.0833 -0.5058,0.1071 0,0.0022 0.003,0.0025 0.007,0.0024 -0.0413,0.0256 -0.0975,0.0161 -0.1376,0.0333 0.006,0 0.006,0.0059 0.0119,0.0059 -0.0357,0.0238 -0.0893,0.0119 -0.1309,0.0298 0.006,0.0059 0.0119,0.0059 0.0178,0.0059 -0.0357,0.0119 -0.0713,0.0238 -0.113,0.0298 0.002,0 0.003,8e-4 0.004,0.0015 -0.088,0.0143 -0.1083,0.0699 -0.2064,0.0699 l 0.006,0.0059 c -0.1249,0.0536 -0.2499,0.0893 -0.3629,0.1369 l 0.006,0.0119 c -0.0238,0.0119 -0.0595,0 -0.0833,0.0298 l 0.006,0.0059 c -0.0595,0.0059 -0.1012,0.0595 -0.1488,0.0595 l 0.0119,0.0119 c -0.1071,0.0357 -0.2142,0.113 -0.2915,0.1666 l 0.006,0.0059 -0.0476,0.0298 0.006,0.0059 c -0.0178,0.0238 -0.0714,0.006 -0.0595,0.0417 l 0.006,0 c -0.0595,0.0298 -0.0952,0.0655 -0.1488,0.0893 0.006,0.0059 0,0.0178 0.006,0.0238 -0.0833,0.0773 -0.1904,0.1249 -0.2559,0.2142 -0.0238,0.0952 0.0119,0.2201 0.0774,0.2856 0.0535,0.0416 0.1011,0.1011 0.1547,0.1249 l -0.006,0.006 c 0.0952,0.0119 0.1369,0.0535 0.2321,0.0654 l 0,0.006 0.0476,0.0178 c 0.0178,0.0417 -0.0476,0.0119 -0.0357,0.0536 -0.0774,0.0416 -0.1428,0.0595 -0.2261,0.0892 l 0,0.006 -0.0774,0.0357 c 0.006,0.0178 -0.0297,0.0297 -0.0238,0.0476 0.0238,0.0179 0.0595,0.0119 0.0833,0.0059 0.0774,-0.0416 0.1666,-0.0714 0.25,-0.0773 0.113,0.0297 0.2082,0.0059 0.3094,0.0416 0.0595,-0.0357 0.1666,-0.0357 0.232,-0.0178 0.0357,0.0119 -0.0178,0.0297 -0.0178,0.0476 -0.0476,0.0238 -0.0893,0.0654 -0.1369,0.0952 l 0.006,0.0059 c -0.0774,0.0536 -0.1726,0.0357 -0.25,0.0536 0,0 0,0.0059 0.006,0.0059 -0.0297,0.0239 -0.0774,0.0119 -0.113,0.0298 -0.006,0.0238 -0.0774,0.0595 -0.1072,0.0714 0.0179,0.0238 -0.0476,0.0119 -0.0297,0.0536 0.0178,0.0178 0.0535,0.0119 0.0773,0.0059 0.0477,-0.0298 0.1309,-0.0357 0.1964,-0.0535 0.0536,0.0357 0.1488,0.0059 0.1844,0.0535 0.1667,0.0119 0.3511,-0.0119 0.5058,0.0179 0.0239,0.0476 -0.0535,0.0654 -0.0773,0.0833 -0.0298,0.0059 -0.0714,0 -0.0893,0.0238 l 0.006,0.0059 c -0.0536,0.0179 -0.1012,0.0417 -0.1488,0.0655 0.003,0.0055 0.006,0.0066 0.008,0.0068 -0.1271,0.0028 -0.2435,0.0585 -0.3653,0.0527 -0.0357,0.0238 -0.0893,0.0654 -0.1309,0.1071 0.006,0.0178 -0.0119,0.0238 0.0119,0.0297 0.0595,0.006 0.1309,-0.0059 0.1845,0.0119 l 0.0119,0.0238 c 0.0832,0.0119 0.1785,0 0.2499,0.0298 -0.0298,0.0178 -0.0595,0.0476 -0.0952,0.0535 0.006,0.006 0.006,0.006 0.006,0.0119 -0.0892,-0.0059 -0.1428,0.0476 -0.2261,0.0476 -0.006,0.0417 -0.0833,0.0179 -0.0892,0.0774 0.0356,0.0416 0.1368,0.0178 0.2023,0.0178 0,-0.0059 -0.0298,0 -0.006,-0.0059 0.1131,-0.0238 0.2083,-0.0179 0.3094,0.0357 0.0179,0.0238 0.0774,0.0119 0.0774,0.0476 0.1666,0.0357 0.3153,-0.0893 0.4701,-0.0179 -0.006,0 -0.012,0 -0.012,0.006 l 0.0536,0.0238 c 0.0119,0.0238 0,0.0238 0,0.0535 -0.1309,0 -0.2677,0.1428 -0.3808,0.1131 -0.1012,0.0536 -0.244,0.0119 -0.357,0.0416 0,0.0358 -0.0952,0.0179 -0.1309,0.0417 l 0.0118,0.0119 c -0.0654,0.0059 -0.113,0.0476 -0.1546,0.0833 0.113,0.0178 0.2439,-0.0119 0.3689,0.006 0.1071,0.0357 0.2082,0.0535 0.3034,0.0952 0.1488,0.0059 0.2797,-0.006 0.4344,0.0119 -0.0119,0.0356 0.0417,0.0178 0.0595,0.0356 -0.0178,0.0179 0.0357,0.0179 0.0178,0.0477 -0.0595,0.0059 -0.1309,0.0416 -0.1844,0.0535 l 0.006,0.006 c -0.0654,0.0238 -0.1189,0.0714 -0.1785,0.0654 l 0.006,0.006 c -0.1547,-0.006 -0.3154,-0.0238 -0.4641,-0.0119 -0.0952,0.0357 -0.1904,0.0892 -0.2738,0.1487 0.0357,0.0357 0.0536,0.0536 0.0893,0.0714 0.0119,0.0595 -0.0773,0.0357 -0.0833,0.0833 0.119,0.0298 0.2261,0.0476 0.3392,0.0893 0,0.0297 0.0714,0.0357 0.0595,0.0535 0.1071,0.0357 0.238,-0.0059 0.3332,0.0357 0.0892,0.006 0.1309,0.0298 0.1963,0.0833 0.006,0.0893 -0.1189,0.0417 -0.1785,0.0655 -0.1249,0.0714 -0.2796,0.1071 -0.4224,0.0952 -0.1071,-0.0476 -0.244,-0.0298 -0.3689,-0.0238 -0.0476,0.0476 -0.1191,0.0238 -0.1666,0.0714 0.0118,0.0298 0.0594,0.0416 0.0654,0.0595 0.1071,0.0535 0.2202,0.0714 0.3154,0.113 -0.006,0.006 -0.0417,0.0298 -0.0238,0.0239 -0.0714,0.0357 -0.1369,0.0357 -0.2023,0.0654 -0.1131,0.0179 -0.244,0.006 -0.3571,0.0238 l 0.006,0.006 -0.0833,0.0238 c 0.006,0.0238 0.0476,0 0.0595,0.0238 0,0 -0.0119,-0.006 -0.0119,0 0.0714,0.0178 0.1547,0.0178 0.2321,0.0238 0.1487,0.0416 0.2677,0.1547 0.4046,0.1606 0.0833,-0.0416 0.1606,0.0119 0.2439,0.0119 0.0119,0.0298 0.0655,0.0536 0.0595,0.0952 l -0.1547,0 c -0.0178,0.0476 -0.1011,0.0179 -0.1428,0.0417 0,0.0059 0.006,0.0059 0.0119,0.0059 -0.0357,0.0357 -0.1011,0 -0.113,0.0476 l -0.1666,0.0179 c 0,0 0.006,0.0059 0.0119,0.0059 -0.2916,0.0655 -0.5832,0.0119 -0.8688,0.0238 0,0.0298 0.0417,0.0357 0.0476,0.0536 0.0952,0.0535 0.1964,0.0654 0.2975,0.1011 l -0.006,0.006 0.0833,0.0238 -0.0179,0.0119 0.0595,0.0238 c 0.0119,0.0178 0.0357,0.0595 0.0417,0.0833 -0.006,0.0059 -0.0179,0 -0.0238,0.0059 -0.0179,-0.0119 -0.0179,-0.0178 -0.0179,-0.0297 -0.0773,0.0178 -0.1487,0.0357 -0.2261,0.0357 -0.0118,0.0416 -0.0892,0.0119 -0.1071,0.0536 -0.1606,0.0297 -0.3451,-0.006 -0.4939,0.0059 0.0893,0.0773 0.2261,0.0833 0.2916,0.1725 -0.1547,-0.0178 -0.3272,0.006 -0.4998,0.0239 0.006,0.0059 0.0119,0.0059 0.0178,0.0059 -0.0416,0 -0.0892,0.0238 -0.1308,-0.0119 -0.0119,-0.1725 -0.0715,-0.3154 -0.0893,-0.4939 0.0238,0 0.0357,-0.0119 0.0535,-0.0178 -0.0119,-0.006 0,-0.006 -0.0119,-0.0119 0.0595,0.0059 0.0536,-0.0536 0.1012,-0.0595 0.0714,-0.0655 0.1488,-0.1369 0.2202,-0.2023 0.0713,-0.1012 0.1606,-0.2023 0.232,-0.3095 0.1012,-0.1487 0.1726,-0.2975 0.244,-0.4641 0.1963,-0.4641 0.1368,-1.0472 0.0535,-1.5708 -0.0595,-0.363 -0.1725,-0.7081 -0.2677,-1.0651 -0.0179,-0.006 -0.0298,-0.0238 -0.0476,-0.0119 0.0119,0.0535 -0.0595,0.0595 -0.0476,0.1071 -0.0953,0.0833 0.006,0.2142 0.0178,0.3153 0.1428,0.5296 0.3332,1.1365 0.2499,1.6661 -0.0119,0.0476 0.006,0.0893 -0.006,0.119 -0.0595,0.2559 -0.1071,0.4701 -0.238,0.6903 -0.0714,0.1784 -0.2261,0.3034 -0.3154,0.4522 -0.0774,0.0476 -0.119,0.113 -0.1845,0.1725 -0.0714,0.006 -0.0952,0.0833 -0.1606,0.0952 0.006,0 0.006,0.006 0.0119,0.006 -0.0595,0.0357 -0.1309,0.0714 -0.1904,0.113 0.006,0.0238 0.0416,0.0119 0.0595,0.0119 0.0952,0.0119 0.0773,0.119 0.1249,0.1785 0.0179,0.2202 0.0893,0.4701 0.0833,0.6724 -0.0773,-0.1547 -0.119,-0.3749 -0.2796,-0.476 -0.0417,-0.0714 -0.1131,-0.0655 -0.1488,-0.113 l 0.006,-0.006 c -0.0476,-0.0119 -0.0595,-0.0476 -0.1131,-0.0655 -0.0535,-0.0535 -0.0357,-0.1606 -0.119,-0.1547 -0.0476,0.0417 0.0119,0.1428 0.0238,0.1964 0.0357,0.0833 0.1369,0.0773 0.2023,0.1309 l 0,0.0059 0.0774,0.0298 c 0.0119,0.0119 0.0178,0.0238 0.0238,0.0416 l -0.1666,0.0239 c 0,0 0.006,0.0059 0.0119,0.0059 -0.0833,0.0119 -0.1845,0.0179 -0.2737,0.0059 0.006,-0.0178 -0.0179,-0.0178 -0.0238,-0.0178 -0.1072,-0.0536 -0.1131,-0.2023 -0.131,-0.2797 -0.0832,-0.0178 -0.1666,-0.0654 -0.2558,-0.1011 l 0.006,-0.006 c -0.0654,-0.0059 -0.0892,-0.0535 -0.1547,-0.0595 l 0.006,-0.0059 -0.0893,-0.0298 c 0.006,0 0.0119,0 0.0119,-0.0059 -0.1249,-0.0595 -0.238,-0.1131 -0.3511,-0.1666 l 0.006,-0.006 -0.0892,-0.0297 0.006,-0.006 -0.0654,-0.0297 0.006,-0.006 c -0.0714,-0.0297 -0.1487,-0.0535 -0.1963,-0.1011 l 0.006,-0.006 -0.0714,-0.0238 0.006,-0.0059 c -0.0773,-0.0417 -0.1844,-0.1012 -0.2439,-0.1428 -0.1071,-0.0595 -0.2142,-0.0714 -0.3213,-0.1012 l 0.006,-0.0059 c -0.0654,0.0119 -0.0773,-0.0595 -0.1368,-0.0655 -0.0238,-0.0297 -0.0655,-0.0714 -0.0774,-0.1131 -0.1309,-0.1487 0.006,-0.3213 -0.0595,-0.47 -0.006,-0.0595 0.0893,-0.0238 0.1071,-0.0536 0.1428,-0.0238 0.2797,0 0.4225,-0.0238 0,0 -0.006,-0.0059 -0.0119,-0.0059 l 0.1368,-0.006 c 0.0477,-0.0119 0.0239,-0.0416 0.0298,-0.0714 -0.1309,-0.0535 -0.238,-0.119 -0.363,-0.1666 0.006,0 0.0119,0 0.0179,-0.0059 -0.0476,-0.0179 -0.0893,-0.0298 -0.1309,-0.0476 -0.0238,-0.0417 0.0595,-0.0298 0.0416,-0.0655 0.0536,-0.0178 0.0357,-0.0357 0.0893,-0.0535 -0.006,0 -0.006,-0.006 -0.0119,-0.006 0.0119,-0.0238 0.0416,-0.0119 0.0654,-0.0297 -0.006,-0.006 -0.0119,-0.006 -0.0178,-0.006 0.0178,-0.0178 0.0595,-0.0059 0.0654,-0.0416 0.0953,-0.0417 0.2023,-0.0239 0.3035,0.0059 -0.006,0.0298 0.0297,0.0179 0.0476,0.0298 l -0.006,0.0059 c 0.0417,0.0238 0.0596,0.0595 0.1131,0.0714 l -0.006,0.006 c 0.0654,0.0416 0.1368,0.0892 0.2082,0.1309 0.1249,0.0535 0.2678,0.0595 0.3927,0.0892 0.0655,-0.0476 0.1309,-0.119 0.1964,-0.1606 0.0893,0.0059 0.1071,-0.0476 0.1963,-0.0357 0.1131,0.0178 0.238,0.0476 0.3392,0.1071 l -0.006,0.0059 c 0.0654,0.0179 0.0892,0.0833 0.1487,0.0952 l -0.006,0.006 c 0.0714,0.0476 0.0892,0.1487 0.1725,0.1547 0.0298,-0.0417 -0.0178,-0.0893 -0.0416,-0.119 -0.0298,-0.0476 -0.0833,-0.0952 -0.125,-0.1547 -0.0714,-0.0655 -0.1249,-0.0833 -0.1844,-0.1309 -0.0715,0 -0.1012,-0.0655 -0.1726,-0.0655 0.006,0 0.0179,0 0.0179,-0.0059 -0.0536,-0.0179 -0.125,-0.006 -0.1726,-0.0357 -0.0536,-0.006 -0.0893,-0.0179 -0.1131,-0.0596 -0.1071,-0.1189 -0.2499,-0.2201 -0.3391,-0.351 -0.2797,-0.3035 -0.4641,-0.6724 -0.6903,-1.0235 -0.0356,-0.0475 -0.0892,-0.0892 -0.1428,-0.1368 -0.0535,-0.0774 -0.1249,-0.1369 -0.1785,-0.2202 -0.0773,-0.0714 -0.1011,-0.1844 -0.1487,-0.2856 -0.0655,0.0417 -0.125,0.1071 -0.1964,0.1428 0,0 0.006,0.006 0.0119,0.006 -0.0416,0.0238 -0.0773,0.0476 -0.1071,0.0654 l 0.006,0 -0.0536,0.0357 0.006,0.006 c -0.0655,0.0059 -0.0298,0.0416 -0.0952,0.0595 -0.1309,0.1368 -0.2559,0.2975 -0.369,0.4522 -0.0119,0.0833 -0.0594,0.1547 -0.0832,0.2321 -0.0239,0.0059 -0.0477,0.0416 -0.0477,0.0654 -0.062,0.0113 -0.0501,0.0541 -0.1093,0.0586 -0.1484,-0.0755 -0.3375,2e-4 -0.4559,-0.1478 -0.0298,-0.0952 -0.0952,-0.1667 -0.1369,-0.2738 -0.0952,-0.1309 -0.2559,-0.2499 -0.3332,-0.3867 -0.0833,-0.0536 -0.1012,-0.1131 -0.1785,-0.1666 l 0.006,-0.006 c -0.0714,-0.0595 -0.1368,-0.119 -0.2082,-0.1785 -0.1369,-0.0654 -0.1428,-0.2499 -0.1785,-0.3629 0.0119,-0.0893 0.0297,-0.125 0.0476,-0.2202 0.0476,-0.1666 -0.0655,-0.3035 -0.1488,-0.4165 -0.0773,-0.0476 -0.1666,-0.0893 -0.2499,-0.0893 0.0119,0 0.006,-0.0119 0.006,-0.0178 0.0714,0 0.1368,0 0.1963,-0.0238 0.0179,-0.0238 0.0298,-0.0714 0.0357,-0.1012 -0.0297,-0.0892 -0.0297,-0.238 -0.0535,-0.3391 l 0.0297,-0.0179 c -0.006,-0.0059 -0.0119,-0.0119 -0.0119,-0.0178 0.119,-0.0238 0.2499,-0.006 0.357,0.0059 0.0119,0.0298 0.0833,0.0178 0.1071,0.0298 0.0536,0.0297 0.125,0.0476 0.1904,0.0714 -0.006,0.0357 0.0774,0.0297 0.0714,0.0595 0.1012,0.0773 0.0833,0.2439 0.1131,0.351 l -0.3749,0.0119 c 0.0179,0.0298 -0.0238,0.0536 0,0.0833 0.0833,0.0298 0.1845,0.0536 0.2797,0.0833 0.0119,0.0714 0.0178,0.1547 0.0773,0.1964 0.0357,0.0773 0.125,0.1071 0.1904,0.1607 0.0655,0.0237 -0.0178,0.0892 0,0.1368 -0.0297,0.0298 -0.0357,0.0714 -0.0535,0.1071 -0.0535,0.0476 -0.0833,0.0952 -0.1488,0.119 -0.006,0.0417 0.0417,0.0714 0.0595,0.1131 0.1726,0.1666 0.3511,0.3034 0.4999,0.476 0.0119,0.0119 0.0297,0.0178 0.0476,0.0119 0.0654,0.0178 0.0476,-0.0357 0.0952,-0.0536 0.0535,-0.0952 0.1487,-0.1606 0.1904,-0.238 0.0654,-0.119 0.1547,-0.2142 0.1785,-0.3332 0.0833,-0.1428 0.0714,-0.2856 0.125,-0.4343 0.0119,-0.0298 0.0357,-0.0477 0.0416,-0.0774 0.0655,-0.0476 0.1845,-0.1012 0.2737,-0.1309 0.0893,0.0119 0.1012,-0.0655 0.1845,-0.0476 0.006,0.1309 -0.0476,0.2856 -0.006,0.4403 0.0238,0.0476 0.0417,0.1131 0.0714,0.1726 0.0238,0.0178 0.0357,0 0.0536,-0.012 -0.0655,-0.1963 -0.0119,-0.3807 0.0238,-0.5652 -0.0119,-0.0714 0.0357,-0.1131 0.0416,-0.1785 -0.0952,-0.0714 -0.1904,-0.0238 -0.2915,-0.0238 0.0119,0.0119 0.0238,0.0059 0.0357,0.0059 -0.1071,0.0119 -0.1964,0.0476 -0.3035,0.0655 0.006,0 0.006,0.0059 0.0119,0.0059 -0.1785,0.006 -0.3094,0.1488 -0.482,0.1726 l 0.0119,0.0059 c -0.0654,0.0119 -0.1309,0.0358 -0.1904,0 0.006,0 0.0179,0.006 0.0179,-0.0059 -0.1071,-0.0298 -0.1369,-0.1845 -0.1785,-0.2737 -0.1309,-0.1666 0.0357,-0.3154 0.0416,-0.476 0.0119,-0.0774 0.0476,-0.1547 0.0476,-0.2202 0.0238,-0.2975 0.0298,-0.6069 0.0714,-0.8985 0.0238,-0.0654 0.0952,-0.1071 0.1131,-0.1726 0.0535,-0.0059 0.0892,-0.0595 0.1428,-0.0595 -0.006,-0.0059 -0.006,-0.0059 -0.0119,-0.0059 0.0238,-0.0178 0.0595,-0.0059 0.0773,-0.0357 l -0.006,0 c 0.0536,-0.0119 0.0773,-0.0536 0.1309,-0.0655 l -0.006,-0.0059 c 0.0417,-0.0357 0.0774,-0.0536 0.1131,-0.0952 0.0179,-0.0476 0.0119,-0.1012 0.0417,-0.1428 0.0178,-0.1012 0.0297,-0.1904 0.006,-0.3035 0.0416,-0.0238 0.0357,0.0417 0.0654,0.0476 l -0.006,0.006 c 0.0238,0.0297 0.0655,0.0119 0.0952,0.0119 0.0535,-0.0714 0.125,-0.119 0.1904,-0.1845 0.0179,-0.0297 0.0417,-0.0595 0.0595,-0.0952 0.0238,-0.0059 0.0714,-0.0178 0.0893,0.0119 0.0238,0.0298 0.0476,0.0595 0.0714,0.0952 0.1011,0.244 0.2559,0.5534 0.0892,0.7973 -0.0535,0.0358 -0.0714,0.0952 -0.119,0.1191 -0.0654,-0.1548 -0.1368,-0.244 -0.1963,-0.3987 -0.0298,0 -0.0655,0.0059 -0.0893,0.0178 0.0178,0.1429 0.0893,0.2797 0.1488,0.4047 -0.0476,0 -0.0952,0 -0.131,0.0238 -0.0118,0.0237 -0.0357,0.0476 -0.0535,0.0714 -0.0357,0.1428 0,0.2558 0.0357,0.4224 -0.0119,0.0119 -0.0476,-0.0059 -0.0417,0.0238 l -0.2141,0.0238 c 0.0178,0.006 0.0357,0.006 0.0535,0.006 l -0.1368,0 c 0.006,0 0.0178,0 0.0238,-0.006 -0.0655,0.006 -0.125,-0.0357 -0.1726,-0.0059 -0.0357,0.2261 -0.0357,0.4522 -0.0417,0.6724 0.1369,0.0476 0.2738,-0.0476 0.4166,-0.0774 -0.006,-0.0059 -0.0119,-0.0119 -0.0179,-0.0119 l 0.0833,-0.0238 -0.0119,-0.0119 c 0.0595,-0.0059 0.0773,-0.0536 0.1369,-0.0595 l -0.0179,-0.0179 c 0.0298,-0.0059 0.0595,-0.0059 0.0833,-0.0178 l -0.0178,-0.0179 c 0.0238,-0.0059 0.0535,-0.0059 0.0714,-0.0238 l -0.0119,-0.0119 c 0.0535,0 0.0714,-0.0535 0.119,-0.0535 l -0.0119,-0.0119 0.0654,-0.0298 -0.0119,-0.0118 c 0.0714,0.0118 0.0595,-0.0596 0.125,-0.0536 l -0.0119,-0.0179 c 0.0238,-0.0059 0.0476,-0.0059 0.0714,-0.0238 -0.006,0 -0.006,-0.0059 -0.0119,-0.0059 0.0952,-0.0476 0.1963,-0.0893 0.2856,-0.1488 0.0952,-0.0238 0.1964,-0.0595 0.2975,-0.1011 0.0714,-0.006 0.1666,-0.0298 0.2321,0 0.0178,0.0416 0.0595,0.0714 0.0773,0.1071 0.125,0.1844 0.1309,0.3986 0.1428,0.601 0.0119,-0.012 0.0357,0.0178 0.0476,-0.006 0.0536,-0.244 -0.0119,-0.4939 -0.0238,-0.7378 0.0655,-0.006 0.0655,-0.0655 0.1309,-0.0655 l -0.0119,-0.0119 c 0.0179,-0.0119 0.0595,-0.0119 0.0595,-0.0357 l 0.0714,-0.0297 -0.006,-0.006 0.0595,-0.0238 -0.0179,-0.0178 c 0.0239,-0.006 0.0536,-0.006 0.0774,-0.0179 -0.0179,-0.0059 -0.006,-0.0119 -0.006,-0.0178 0.0237,0 0.0357,-0.0179 0.0594,-0.0238 l -0.0119,-0.006 c 0.0655,-0.0535 0.1429,-0.0535 0.1964,-0.1071 l -0.006,0 c 0.0715,-0.0178 0.131,-0.0714 0.1964,-0.1071 l -0.006,0 0.0833,-0.0297 -0.012,-0.012 0.0834,-0.0237 -0.0119,-0.012 c 0.0297,-0.0059 0.0595,-0.0059 0.0773,-0.0297 l -0.006,0 c 0.0178,-0.0178 0.0535,-0.0178 0.0773,-0.0238 l -0.006,-0.0238 c 0.0773,0.0238 0.0833,-0.0595 0.1606,-0.0536 0,0 -0.006,-0.0059 -0.0119,-0.0059 0.119,-0.0536 0.2618,-0.1071 0.3749,-0.1309 l -0.006,-0.0119 c 0.1606,-0.006 0.3391,-0.1012 0.4819,-0.1488 0.125,0.006 0.1785,-0.0535 0.2975,-0.0535 0,0 -0.006,-0.006 -0.006,-0.0119 0.1369,-0.0238 0.2618,-0.0476 0.3927,-0.0595 0,-0.006 -0.0238,0 -0.0119,-0.006 0.0773,-0.0238 0.1666,-0.0119 0.244,-0.0297 l -0.006,-0.006 c 0.2082,0.006 0.3808,-0.0654 0.5891,-0.0654 -0.006,0 -0.006,-0.006 -0.0119,-0.006 l 0.0654,-0.0238 c 0.0238,-0.1844 0.0298,-0.351 0.0536,-0.5295 0.0238,-0.0655 0.0416,-0.1428 0.0595,-0.2023 0.0654,-0.0536 -0.0357,-0.0655 -0.006,-0.1191 -0.0297,0.0119 -0.0416,0.0595 -0.0654,0.0774 -0.0417,0.0833 -0.0595,0.1428 -0.1071,0.2142 -0.0417,0.1131 -0.0833,0.2261 -0.1012,0.3392 -0.006,0.0833 -0.1368,0.0357 -0.2023,0.0595 0.0119,0.0059 0.0298,0.0059 0.0417,0.0059 l -0.3511,0.0238 c 0,0.0039 0.005,0.0055 0.009,0.0064 -0.0887,0.0231 -0.1946,0.0176 -0.2772,0.0353 0.006,0.0059 0.012,0 0.0179,0 -0.0357,0.0178 -0.0714,0.0238 -0.1131,0.0178 0.0774,-0.2261 0.1666,-0.47 0.3095,-0.6664 0.0952,-0.0893 0.1785,-0.1964 0.2558,-0.2856 0.0536,0.0059 0.0298,-0.0536 0.0773,-0.0476 0.0477,-0.1071 0.1786,-0.1666 0.2202,-0.2856 0.006,-0.2618 0.0417,-0.4701 -0.0357,-0.7319 -0.1963,-0.238 -0.3451,-0.5355 -0.5534,-0.7319 -0.0773,-0.0773 -0.1725,-0.119 -0.2558,-0.1964 -0.1309,-0.0833 -0.2023,-0.2499 -0.3154,-0.351 -0.1011,-0.0417 -0.232,-0.0952 -0.3451,-0.0952 -0.006,-0.0298 0.0357,-0.0357 0.0357,-0.0595 0.006,-0.1845 -0.1547,-0.3451 -0.1725,-0.5296 0.0475,-0.0059 0.0892,-0.0535 0.1487,-0.0357 0.119,-0.0476 0.2797,-0.0238 0.4165,-0.0178 0.0655,0.0416 0.1428,-0.006 0.1964,0.0476 0.1309,0.0595 0.2142,0.1904 0.2558,0.3272 -0.0119,0.006 -0.0357,0.0119 -0.0238,0.0179 -0.113,0 -0.232,0.0416 -0.3332,0.0476 -0.0119,0.0297 0,0.0773 0.0119,0.113 0.125,0.0298 0.2975,-0.0416 0.3927,0.0417 l -0.006,0.0059 c 0.0536,0.0417 0.0833,0.1071 0.1547,0.119 l -0.006,0.006 c 0.113,0.0297 0.2379,0.0833 0.3451,0.0833 l 0,0.0059 0.0892,0.0119 c 0.0119,0.0833 0.0119,0.2083 -0.0476,0.2678 -0.0119,0.0357 -0.0595,0.0536 -0.0476,0.0952 0.1547,0.1964 0.2975,0.4344 0.4939,0.5831 0.0714,0.0476 0.1547,0.0655 0.2142,0.1012 0.1011,0.0654 0.2083,0.119 0.2796,0.1904 0.012,0.0357 0.0834,0.1071 0.0477,0.1666 -0.0239,0.1488 -0.0536,0.3035 -0.0714,0.4582 0.0237,0.0059 0.0475,0 0.0595,-0.0179 -0.006,-0.0059 -0.006,-0.0059 -0.012,-0.0059 0.0834,-0.0238 0.1429,-0.1071 0.2262,-0.1369 -0.006,0 -0.006,-0.0059 -0.0119,-0.0059 0.0654,-0.0119 0.0952,-0.0774 0.1606,-0.0952 l -0.0178,-0.0179 c 0.0297,-0.0059 0.0535,-0.0059 0.0833,-0.0178 -0.006,-0.006 -0.0119,-0.006 -0.0179,-0.006 0.1131,-0.0416 0.2142,-0.1131 0.3392,-0.1369 -0.006,0 -0.006,-0.0059 -0.0119,0 0.0238,-0.0357 0.1011,-0.0059 0.113,-0.0476 0.1369,-0.1547 0.2976,-0.3213 0.4225,-0.4879 0.0417,-0.0654 -0.006,-0.113 -0.0238,-0.1725 -0.0773,-0.2737 -0.2201,-0.5058 -0.363,-0.7379 -0.1547,-0.1606 -0.2677,-0.2796 -0.3867,-0.4641 -0.0298,-0.0297 -0.0655,-0.0714 -0.1131,-0.0952 l 0.006,-0.0059 c -0.125,-0.0655 -0.2559,-0.125 -0.3868,-0.1547 0.0298,-0.0238 0.0536,-0.0715 0.0476,-0.1071 -0.0416,-0.1488 -0.1011,-0.2797 -0.1904,-0.3868 -0.0297,-0.0298 -0.0238,-0.0536 0.006,-0.0714 0.0654,-0.0179 0.1189,-0.0357 0.1904,-0.0476 l -0.006,-0.006 c 0.1726,-0.0238 0.3987,-0.0238 0.5712,0 0.1726,0.0536 0.2797,0.1904 0.3273,0.369 -0.0178,0.0059 -0.0416,0.0059 -0.0416,0.0178 l -0.2083,0.0238 0.006,0.0059 c -0.0536,0.0179 -0.131,0 -0.1845,0.0239 0.0238,0.0416 0.0357,0.0892 0.0714,0.113 0.119,0 0.2558,0.006 0.3511,-0.006 0.0654,0.0834 0.113,0.1607 0.1963,0.2321 0.0654,0.0476 0.1488,0.0833 0.2202,0.0893 l -0.006,0.0059 0.2261,0.0238 c 0.0357,0.0952 0.0119,0.1964 -0.0535,0.2559 -0.0119,0.0297 -0.0476,0.0714 -0.0714,0.0773 -0.0238,0.0298 -0.0417,0.0655 -0.0357,0.1012 0.0654,0.1785 0.1428,0.3391 0.2261,0.5236 0.1249,0.2618 0.3867,0.4165 0.4344,0.714 -0.006,0.0833 0.0416,0.1905 -0.0536,0.2321 -0.0298,0.0416 -0.0595,0.0655 -0.0774,0.0893 -0.0595,0 -0.0357,0.0535 -0.0892,0.0535 -0.0595,0.0654 -0.119,0.1547 -0.1726,0.2142 -0.0833,0.1428 -0.1785,0.244 -0.2499,0.3749 -0.0357,0.0238 -0.0773,0.0535 -0.0892,0.0773 l -0.006,0.0417 c 0.1369,0.2737 0.3273,0.5295 0.4522,0.7914 0.125,0.2796 0.3095,0.6783 0.1428,1.0174 0.0238,0.012 0.0476,0.012 0.0536,0.0358 l 0.0952,0 c 0.0416,-0.0714 0.0714,-0.1071 0.1071,-0.1726 0.0654,-0.0059 0.0357,-0.0476 0.0952,-0.0536 l -0.0178,-0.0119 0.0773,-0.0118 c 0.0119,-0.0179 -0.0178,-0.012 0,-0.0238 0.0297,-0.006 0.0595,-0.006 0.0893,-0.0239 -0.006,0 -0.006,-0.0059 -0.0119,-0.0059 l 0.0892,-0.0298 c -0.006,0 -0.006,-0.0059 -0.0119,-0.0059 l 0.0655,-0.0298 c -0.006,-0.0059 -0.006,-0.0059 -0.0119,-0.0059 0.0119,-0.0119 0.0595,-0.0238 0.0357,-0.0416 0.0833,-0.0953 0,-0.25 -0.0417,-0.363 0.0774,0.0892 0.1131,0.2201 0.1904,0.2975 0.0179,0.0714 0.0238,0.1369 0.0238,0.2083 0.0179,0.0059 0.0298,-0.006 0.0417,-0.0239 0.0119,-0.0595 0.0654,-0.0714 0.0833,-0.113 0.0833,-0.0238 0.1725,-0.0059 0.2618,-0.0179 0,-0.0357 0.0714,-0.0238 0.0595,-0.0595 l 0.0416,0 c 0.0119,0.0655 -0.006,0.1309 -0.0178,0.1904 -0.0595,0.0893 -0.1666,0.1488 -0.1845,0.2618 -0.0416,0.0358 -0.0773,0.0655 -0.1071,0.1072 0.0238,0.0178 0.0655,0.0059 0.0952,-0.0119 L 362.2575,40.88 c 0.0238,-0.006 0.0536,-0.006 0.0774,-0.0238 l -0.0119,-0.006 c 0.0535,-0.0297 0.1309,-0.0238 0.1904,-0.0059 0.0774,0.0059 0.0892,-0.0595 0.1666,-0.0477 0.0238,0.012 0.0714,0.006 0.0655,0.0358 l 0.1963,0.0178 c 0.0179,0.0476 -0.0298,0.0774 -0.0416,0.1131 l 0.006,0 c -0.0595,0.0238 -0.119,0.0535 -0.1666,0.0654 -0.0297,0.0298 -0.0595,0.0536 -0.0833,0.0893 -0.0238,0 -0.0536,0.0059 -0.0773,0.0119 -0.006,0.0178 -0.0179,0.0416 0.006,0.0654 0.0714,0.0179 0.1547,0.0119 0.2202,-0.0119 0,-0.0238 0.0535,-0.0178 0.0714,-0.0535 0.113,-0.0357 0.1666,0.0714 0.2379,0.0833 -0.006,0 -0.0118,0 -0.0178,0.0059 0.0238,0.0238 0.0655,0.006 0.0952,0.0238 -0.0238,0.0238 -0.0178,0.0774 -0.0654,0.0714 -0.0179,0.0357 -0.0833,0.0179 -0.119,0.0357 l 0.0119,0.0119 -0.0774,0.0238 c -0.0119,0.0357 -0.0595,0.0655 -0.0654,0.0833 -0.0417,0.0179 -0.0536,0.0536 -0.1012,0.0595 0,0.0119 0.006,0.0119 -0.006,0.0238 0.0476,0.0238 0.1071,0.006 0.1547,0.012 0.0119,0.0416 0.0714,0.0237 0.0714,0.0475 0.0714,0.0357 0.1428,0.0595 0.2082,0.0417 0.0179,-0.0298 0.0893,-0.0178 0.1309,-0.006 l -0.006,0.006 0.0595,0.0178 c -0.0119,0.0357 0.0297,0.0298 0.0178,0.0596 -0.0119,0 -0.0357,0 -0.0416,0.0237 l 0.006,0.006 c -0.0833,0.0416 -0.1606,0.0774 -0.2201,0.1428 -0.1369,0.0357 -0.2797,-0.0238 -0.4046,0.0119 -0.0239,0.0357 -0.0952,0.0297 -0.1429,0.0417 0,0.0059 0.006,0.0059 0.012,0.0059 -0.0774,0.0119 -0.1548,-0.0179 -0.2143,-0.0416 l 0.006,0 c -0.0416,0 -0.0774,-0.0357 -0.1131,-0.012 0.0417,0.0536 0.0774,0.1012 0.1369,0.1191 0.0357,0.0357 0.1071,0.0714 0.1666,0.0833 l -0.006,0.0059 c 0.1308,0.0357 0.2974,-0.0059 0.4343,0.0298 l -0.006,0.0059 0.0833,0.0238 -0.006,0.006 c 0.0536,0.0178 0.0714,0.0476 0.1071,0.0773 0.0833,0.006 0.1547,-0.0238 0.2321,-0.0178 0.0476,0.0357 0.119,0.0416 0.1428,0.0952 0.0416,0.0178 0.0952,0.0119 0.1368,0.0059 0.0655,-0.0178 0.0655,0.0476 0.125,0.0476 0,0.0238 0.0298,0.0298 0.0417,0.0536 -0.0834,0.0357 -0.1607,0.1011 -0.25,0.1487 -0.0416,0.0476 -0.1309,0.0119 -0.2023,0.0298 0,0.0476 -0.0476,0.0059 -0.0595,0.0416 0.0715,-0.0119 0.1309,0.0417 0.1964,0.0417 0,0.006 0.006,0.0119 0,0.0178 0.0654,0.0417 0.1309,0.0774 0.1963,0.0714 0.0476,-0.0059 0.1488,-0.0832 0.2262,-0.0535 -0.006,0.0357 0.0416,0.0178 0.0595,0.0357 -0.0119,0.0178 0.0238,0.0357 0.0178,0.0535 -0.0297,0.006 -0.0655,0.006 -0.0952,0.0179 -0.0119,0.0119 -0.0595,0.0476 -0.0833,0.0655 0,0.0059 -0.006,0.0178 0,0.0238 -0.0714,-0.012 -0.0535,0.0535 -0.119,0.0535 0,0 0.002,0.0014 0.004,0.0022 -0.0682,0.0211 -0.1316,0.0216 -0.2059,0.0216 -0.0714,0.0595 -0.1607,0.125 -0.2559,0.1488 0.0179,0.0654 0.0952,0.0178 0.1488,0.0237 -0.006,-0.0059 -0.006,-0.0059 -0.0119,-0.0059 0.0476,-0.0297 0.119,-0.0178 0.1725,-0.0119 0.0893,0.0357 0.1547,0.1012 0.25,0.0893 0.0238,-0.0476 0.107,-0.006 0.1249,-0.0536 0.0893,-0.0179 0.1845,0 0.244,0.0417 0.006,0.0238 0.0476,0.0476 0.0416,0.0714 -0.0833,0.0059 -0.1428,0.0357 -0.2082,0.0654 -0.0357,0.0476 -0.0953,0.0655 -0.125,0.119 -0.0238,0.0179 -0.0714,-0.0059 -0.0773,0.0357 l -0.3571,0.0119 c -0.0654,0.0357 -0.113,0.0774 -0.1844,0.0774 0,0.0059 0.0119,0.0059 0.0178,0.0059 -0.0297,0.0238 -0.0892,0.0119 -0.1249,0.0298 l 0.0178,0.0119 c -0.0595,0.0178 -0.1309,0.0059 -0.1904,0.0238 0.0298,0.0595 0.119,0.0595 0.1607,0.0952 0.0833,0.0059 0.1725,0.0059 0.2499,0 0.0535,-0.0536 0.1606,-0.0119 0.2142,-0.0536 0.1368,-0.0178 0.2559,-0.0119 0.3987,-0.0059 0.0297,0.0238 0.0833,0.0416 0.1189,0.0654 0.0179,0.0298 0.0239,0.0595 0.0596,0.0774 0.0357,0.0773 0.006,0.2082 -0.0476,0.2737 -0.012,0.0655 -0.1071,0.1012 -0.0893,0.1785 0.1071,0.0179 0.1964,-0.0773 0.2975,-0.0298 0,0.006 -0.0119,0.006 -0.0119,0.012 l 0.0595,0.0178 c -0.0238,0.0238 0.0119,0.0298 0.0179,0.0417 z m -10.6212,2.0706 c -0.0238,-0.0119 -0.0417,-0.0238 -0.0476,-0.0297 l -0.119,0 c 0.0297,0.0238 0.0535,0.0476 0.0714,0.0892 0.0119,0.0357 -0.0298,0.0715 -0.0417,0.119 -0.0297,0.006 -0.0595,0.0239 -0.1011,0.006 -0.006,0.0357 0.0595,0.0059 0.0535,0.0476 0.0417,0.006 0.0952,0.006 0.1428,0 l -0.006,0 c -0.0119,-0.0357 0.0655,-0.0238 0.0535,-0.0536 0.0238,-0.0238 0.0357,-0.0595 0.0298,-0.1011 0.006,-0.0357 -0.0178,-0.0476 -0.0357,-0.0774 z m 1.2674,0.5356 c -0.0476,-0.0238 -0.125,-0.0179 -0.1785,-0.006 -0.0238,0.0417 -0.0893,0.0714 -0.1071,0.119 -0.0417,0.0298 -0.0893,0.0179 -0.119,0.0238 0,0.0476 0.0833,0.0119 0.0773,0.0536 0.0774,0.0119 0.1488,0.0357 0.2261,0.0595 l -0.0119,0.0059 0.0536,0 c -0.006,0 -0.006,0 -0.0119,-0.0059 0.0416,-0.0179 0.0654,-0.0357 0.0892,-0.0595 0.0239,-0.0655 0.0179,-0.1309 -0.0178,-0.1904"
           style="fill:#000000;fill-opacity:1;fill-rule:nonzero;stroke:none"
           id="path90" />
        <path
           inkscape:connector-curvature="0"
           d="m 359.1701,42.3521 c 0.002,-0.0011 0.004,-0.0013 0.005,-0.0024 0.008,0 8e-4,0.0021 -0.005,0.0024"
           style="fill:#000000;fill-opacity:1;fill-rule:nonzero;stroke:none"
           id="path92" />
        <path
           inkscape:connector-curvature="0"
           d="m 358.8224,42.4583 c 0.003,-4e-4 0.005,-0.0012 0.008,-0.0015 -0.004,0.0038 -0.006,0.0028 -0.008,0.0015"
           style="fill:#000000;fill-opacity:1;fill-rule:nonzero;stroke:none"
           id="path94" />
        <path
           inkscape:connector-curvature="0"
           d="m 358.3089,44.6295 c 0.003,0 0.006,-9e-4 0.01,-9e-4 -0.003,0 -0.006,0.0012 -0.01,9e-4"
           style="fill:#000000;fill-opacity:1;fill-rule:nonzero;stroke:none"
           id="path96" />
        <path
           inkscape:connector-curvature="0"
           d="m 352.5706,44.6524 c 0.004,0 0.006,-6e-4 0.01,-9e-4 7e-4,4e-4 0.002,5e-4 0.002,9e-4 -0.006,0.006 -0.0118,0 -0.0118,0"
           style="fill:#000000;fill-opacity:1;fill-rule:nonzero;stroke:none"
           id="path98" />
        <path
           inkscape:connector-curvature="0"
           d="m 357.8102,39.851 c 9e-4,-2e-4 0.002,-2e-4 0.002,-4e-4 0.02,0 0.008,0.0023 -0.002,4e-4"
           style="fill:#000000;fill-opacity:1;fill-rule:nonzero;stroke:none"
           id="path100" />
        <path
           inkscape:connector-curvature="0"
           d="m 363.7725,42.9945 c 0.003,-9e-4 0.006,-0.0012 0.008,-0.0022 -0.003,0.0031 -0.006,0.003 -0.008,0.0022"
           style="fill:#000000;fill-opacity:1;fill-rule:nonzero;stroke:none"
           id="path102" />
        <path
           inkscape:connector-curvature="0"
           d="m 342.8711,32.1649 0.3156,0 0,18.8113 -0.3156,0 0,-18.8113 z"
           style="fill:#000000;fill-opacity:1;fill-rule:nonzero;stroke:none"
           id="path104" />
      </g>
    </g>
  </g>
</svg>
