<svg width="10" height="10" viewBox="0 0 10 10" fill="none" xmlns="http://www.w3.org/2000/svg">
<rect x="0.416667" y="0.416667" width="9.16667" height="9.16667" rx="4.58333" stroke="black" stroke-opacity="0.4" stroke-width="0.833333"/>
<path d="M5.50781 3.47786V7H4.48893V3.47786H5.50781ZM4.42708 2.56641C4.42708 2.41884 4.47917 2.29839 4.58333 2.20508C4.6875 2.10959 4.82422 2.06185 4.99349 2.06185C5.16276 2.06185 5.29948 2.10959 5.40365 2.20508C5.50998 2.29839 5.56315 2.41884 5.56315 2.56641C5.56315 2.71181 5.50998 2.83225 5.40365 2.92773C5.29948 3.02105 5.16276 3.06771 4.99349 3.06771C4.82422 3.06771 4.6875 3.02105 4.58333 2.92773C4.47917 2.83225 4.42708 2.71181 4.42708 2.56641Z" fill="black" fill-opacity="0.4"/>
</svg>
