<svg width="16" height="16" viewBox="0 0 16 16" fill="none" xmlns="http://www.w3.org/2000/svg">
<rect x="0.75" y="0.75" width="14.5" height="14.5" rx="3.25" stroke="black" stroke-width="1.5"/>
<path d="M6.61086 12V11.436H6.73086C7.24686 11.436 7.40286 11.184 7.40286 10.62V8.484C7.40286 7.668 7.21086 7.62 6.63486 7.62H6.37086V7.152L8.42286 6.492H8.89086V10.62C8.89086 11.184 9.04686 11.436 9.56286 11.436H9.68286V12H6.61086ZM8.14686 5.7C7.57086 5.7 7.15086 5.292 7.15086 4.74C7.15086 4.164 7.57086 3.744 8.14686 3.744C8.68686 3.744 9.14286 4.164 9.14286 4.74C9.14286 5.292 8.68686 5.7 8.14686 5.7Z" fill="black"/>
</svg>
