<svg width="24" height="24" viewBox="0 0 24 24" fill="none" xmlns="http://www.w3.org/2000/svg">
<g clip-path="url(#clip0_1963_37608)">
<mask id="path-1-inside-1_1963_37608" fill="white">
<path d="M11.9365 0C16.5044 0.000190056 20.2208 3.63555 20.3555 8.1709H20.3613V9.63672C20.3613 14.9132 11.6807 24.001 11.6807 24.001C11.6807 24.001 3 14.9132 3 9.63672V8.1709H3.00586C3.14051 3.63543 6.85769 0 11.4258 0H11.9365Z"/>
</mask>
<path d="M11.9365 0L11.9366 -1.995H11.9365V0ZM20.3555 8.1709L18.3613 8.23011L18.4188 10.1659H20.3555V8.1709ZM20.3613 8.1709H22.3563V6.1759H20.3613V8.1709ZM11.6807 24.001L10.238 25.379L11.6807 26.8892L13.1233 25.379L11.6807 24.001ZM3 8.1709V6.1759H1.005V8.1709H3ZM3.00586 8.1709V10.1659H4.94251L4.99998 8.2301L3.00586 8.1709ZM11.9365 0L11.9364 1.995C15.4217 1.99515 18.2586 4.76901 18.3613 8.23011L20.3555 8.1709L22.3496 8.11169C22.183 2.50209 17.5872 -1.99477 11.9366 -1.995L11.9365 0ZM20.3555 8.1709V10.1659H20.3613V8.1709V6.1759H20.3555V8.1709ZM20.3613 8.1709H18.3663V9.63672H20.3613H22.3563V8.1709H20.3613ZM20.3613 9.63672H18.3663C18.3663 10.4786 17.9969 11.6943 17.2282 13.2C16.4831 14.6592 15.4676 16.1921 14.4176 17.6105C13.3727 19.022 12.3231 20.2806 11.5326 21.1883C11.1383 21.6411 10.8107 22.0039 10.5834 22.2517C10.4698 22.3756 10.3814 22.4705 10.3224 22.5335C10.2929 22.565 10.2708 22.5884 10.2565 22.6035C10.2494 22.611 10.2443 22.6164 10.2412 22.6197C10.2396 22.6213 10.2386 22.6224 10.2381 22.623C10.2378 22.6232 10.2377 22.6234 10.2377 22.6234C10.2377 22.6234 10.2378 22.6233 10.2378 22.6233C10.2379 22.6232 10.238 22.623 11.6807 24.001C13.1233 25.379 13.1235 25.3787 13.1238 25.3785C13.1239 25.3783 13.1242 25.378 13.1245 25.3777C13.125 25.3772 13.1256 25.3765 13.1264 25.3757C13.128 25.374 13.1301 25.3718 13.1327 25.369C13.138 25.3635 13.1453 25.3558 13.1546 25.346C13.1732 25.3263 13.1998 25.2981 13.2339 25.2618C13.3021 25.189 13.4002 25.0836 13.5239 24.9487C13.7713 24.6789 14.122 24.2905 14.5414 23.8088C15.3785 22.8477 16.4992 21.5046 17.6244 19.9845C18.7446 18.4714 19.8992 16.743 20.7818 15.0143C21.6407 13.332 22.3563 11.4331 22.3563 9.63672H20.3613ZM11.6807 24.001C13.1233 22.623 13.1234 22.6232 13.1236 22.6233C13.1236 22.6233 13.1237 22.6234 13.1237 22.6234C13.1237 22.6234 13.1235 22.6232 13.1233 22.623C13.1227 22.6224 13.1217 22.6213 13.1202 22.6197C13.117 22.6164 13.1119 22.611 13.1048 22.6035C13.0905 22.5884 13.0684 22.565 13.0389 22.5335C12.9799 22.4705 12.8915 22.3756 12.7779 22.2517C12.5506 22.0039 12.2231 21.6411 11.8287 21.1883C11.0382 20.2806 9.98866 19.022 8.94377 17.6105C7.89375 16.1921 6.8782 14.6592 6.13317 13.2C5.36444 11.6943 4.995 10.4786 4.995 9.63672H3H1.005C1.005 11.4331 1.72064 13.332 2.57953 15.0143C3.46213 16.743 4.61675 18.4714 5.73689 19.9845C6.86217 21.5046 7.9828 22.8477 8.81988 23.8088C9.23938 24.2905 9.58999 24.6789 9.83741 24.9487C9.96117 25.0836 10.0593 25.189 10.1274 25.2618C10.1615 25.2981 10.1881 25.3263 10.2067 25.346C10.216 25.3558 10.2234 25.3635 10.2286 25.369C10.2312 25.3718 10.2333 25.374 10.2349 25.3757C10.2357 25.3765 10.2363 25.3772 10.2369 25.3777C10.2371 25.378 10.2374 25.3783 10.2376 25.3785C10.2378 25.3787 10.238 25.379 11.6807 24.001ZM3 9.63672H4.995V8.1709H3H1.005V9.63672H3ZM3 8.1709V10.1659H3.00586V8.1709V6.1759H3V8.1709ZM3.00586 8.1709L4.99998 8.2301C5.10274 4.76911 7.94025 1.995 11.4258 1.995V0V-1.995C5.77513 -1.995 1.17829 2.50175 1.01174 8.11169L3.00586 8.1709ZM11.4258 0V1.995H11.9365V0V-1.995H11.4258V0Z" fill="black" mask="url(#path-1-inside-1_1963_37608)"/>
<rect x="9.10688" y="6.10297" width="5.15394" height="5.15394" rx="2.57697" stroke="black" stroke-width="1.995"/>
</g>
<defs>
<clipPath id="clip0_1963_37608">
<rect width="24" height="24" fill="white"/>
</clipPath>
</defs>
</svg>
