<svg width="16" height="16" viewBox="0 0 16 16" fill="none" xmlns="http://www.w3.org/2000/svg">
<path d="M2 3.53906V6.78906H5.25" stroke="black" stroke-width="1.33" stroke-linecap="round" stroke-linejoin="round"/>
<path d="M13.9219 12.207V8.95703H10.6719" stroke="black" stroke-width="1.33" stroke-linecap="round" stroke-linejoin="round"/>
<path d="M12.5571 6.24872C12.2824 5.47239 11.8155 4.77831 11.2 4.23124C10.5844 3.68416 9.84037 3.30192 9.03718 3.12019C8.23398 2.93846 7.39784 2.96315 6.60677 3.19197C5.8157 3.42079 5.09549 3.84627 4.51333 4.42872L2 6.79038M13.9167 8.95705L11.4033 11.3187C10.8212 11.9012 10.101 12.3266 9.3099 12.5555C8.51883 12.7843 7.68268 12.809 6.87949 12.6272C6.07629 12.4455 5.33223 12.0633 4.71671 11.5162C4.1012 10.9691 3.6343 10.275 3.35958 9.49872" stroke="black" stroke-width="1.33" stroke-linecap="round" stroke-linejoin="round"/>
</svg>
