<svg width="24" height="24" viewBox="0 0 24 24" fill="none" xmlns="http://www.w3.org/2000/svg">
<path d="M12.0342 16.0994C11.5039 16.0994 11.0328 16.0036 10.6208 15.8118C10.2089 15.62 9.88337 15.3561 9.64426 15.0199C9.40752 14.6837 9.28442 14.2978 9.27495 13.8622H10.9795C10.9937 14.1297 11.1026 14.3452 11.3062 14.5085C11.5098 14.6695 11.7525 14.75 12.0342 14.75C12.2544 14.75 12.4497 14.7015 12.6201 14.6044C12.7906 14.5073 12.9243 14.3712 13.0214 14.196C13.1185 14.0185 13.1658 13.8149 13.1634 13.5852C13.1658 13.3509 13.1173 13.1461 13.0178 12.9709C12.9208 12.7957 12.7858 12.6596 12.613 12.5625C12.4426 12.4631 12.2461 12.4134 12.0235 12.4134C11.8128 12.411 11.6128 12.4571 11.4234 12.5518C11.2364 12.6465 11.0943 12.7756 10.9972 12.9389L9.4454 12.6477L9.76145 8.72727H14.4276V10.1442H11.2068L11.0399 11.8594H11.0825C11.2032 11.6581 11.3973 11.4924 11.6649 11.3622C11.9347 11.2296 12.2413 11.1634 12.5846 11.1634C13.0202 11.1634 13.4085 11.2652 13.7494 11.4688C14.0927 11.67 14.3625 11.9493 14.559 12.3068C14.7579 12.6643 14.8573 13.0739 14.8573 13.5355C14.8573 14.035 14.739 14.4777 14.5022 14.8636C14.2678 15.2495 13.9388 15.5526 13.515 15.7727C13.0936 15.9905 12.6 16.0994 12.0342 16.0994Z" fill="white"/>
<path d="M2.5625 1.74609L2.49964 8.24563L8.39449 8.30264" stroke="white" stroke-width="2" stroke-linejoin="round"/>
<path d="M2.5 12.5C2.5 17.7467 6.75329 22 12 22C17.2467 22 21.5 17.7467 21.5 12.5C21.5 7.25329 17.2467 3 12 3C7.25 3 5.13889 5.63889 3.55556 7.22222" stroke="white" stroke-width="2.25"/>
</svg>
