<svg width="100" height="100" viewBox="0 0 100 100" fill="none" xmlns="http://www.w3.org/2000/svg">
<rect width="100" height="100" fill="white"/>
<path d="M78.8713 53.3363C78.8713 45.5621 74.1873 38.228 61.8918 38.228C61.8918 29.3657 56.6223 19 42.5703 19C28.5184 19 23.2489 28.7178 22.6634 39.0835C12.1245 39.0835 1 43.6185 1 57.2234C1 63.8161 9.19697 70.8284 17.3939 70.8284H30.8604C42.5703 71.0973 49.1353 70.6553 66.002 70.6553C78.5271 70.6553 78.8713 60.3748 78.8713 53.3363Z" fill="#B5B5B5"/>
<path d="M21.7772 63.1703C21.7772 55.3961 26.4612 48.062 38.7566 48.062C38.7566 39.1997 44.0261 28.834 58.0781 28.834C72.13 28.834 77.3995 38.5518 77.985 48.9175C88.524 48.9175 99.6484 53.4524 99.6484 67.0574C99.6484 73.6501 91.4515 80.6624 83.2545 80.6624H69.788C58.0781 80.9312 51.5132 80.4893 34.6464 80.4893C22.1214 80.4893 21.7772 70.2088 21.7772 63.1703Z" fill="#E8E8E8"/>
</svg>
