<svg width="100" height="100" viewBox="0 0 100 100" fill="none" xmlns="http://www.w3.org/2000/svg">
<rect width="100" height="100" fill="white"/>
<path d="M22.5 37C27.9847 37 32 33.3524 32 27.8492C32 22.346 22.5 12 22.5 12C22.5 12 13 22.5661 13 27.8492C13 33.1323 17.0153 37 22.5 37Z" fill="#8577FF"/>
<path d="M81.5 62C86.9847 62 91 58.3524 91 52.8492C91 47.346 81.5 37 81.5 37C81.5 37 72 47.5661 72 52.8492C72 58.1323 76.0153 62 81.5 62Z" fill="#8577FF"/>
<path d="M68.5 25C73.9847 25 78 21.3524 78 15.8492C78 10.346 68.5 0 68.5 0C68.5 0 59 10.5661 59 15.8492C59 21.1323 63.0153 25 68.5 25Z" fill="#8577FF"/>
<path d="M13.5 91C18.9847 91 23 87.3524 23 81.8492C23 76.346 13.5 66 13.5 66C13.5 66 4 76.5661 4 81.8492C4 87.1323 8.01532 91 13.5 91Z" fill="#8577FF"/>
<path d="M65.5 96C70.9847 96 75 92.3524 75 86.8492C75 81.346 65.5 71 65.5 71C65.5 71 56 81.5661 56 86.8492C56 92.1323 60.0153 96 65.5 96Z" fill="#8577FF"/>
<path d="M50 84C65.0107 84 76 73.9327 76 58.7438C76 43.555 50 15 50 15C50 15 24 44.1625 24 58.7438C24 73.3251 34.9893 84 50 84Z" fill="#A49AF9"/>
</svg>
